<?xml version="1.0" encoding="UTF-8" standalone="no"?>
<!-- Created with Inkscape (http://www.inkscape.org/) -->

<svg
   xmlns:dc="http://purl.org/dc/elements/1.1/"
   xmlns:cc="http://creativecommons.org/ns#"
   xmlns:rdf="http://www.w3.org/1999/02/22-rdf-syntax-ns#"
   xmlns:svg="http://www.w3.org/2000/svg"
   xmlns="http://www.w3.org/2000/svg"
   xmlns:sodipodi="http://sodipodi.sourceforge.net/DTD/sodipodi-0.dtd"
   xmlns:inkscape="http://www.inkscape.org/namespaces/inkscape"
   width="210mm"
   height="297mm"
   viewBox="0 0 744.0945 1052.3622"
   id="svg7694"
   version="1.1"
   inkscape:version="0.91 r13725"
   sodipodi:docname="schild-hart-circel-ruit-ster-laag-4.svg">
  <defs
     id="defs7696">
    <linearGradient
       x1="0"
       y1="0"
       x2="1"
       y2="0"
       gradientUnits="userSpaceOnUse"
       gradientTransform="matrix(-147.52,-207.34875,207.34875,-147.52,361.62143,470.5997)"
       spreadMethod="pad"
       id="linearGradient4380">
      <stop
         style="stop-opacity:1;stop-color:#fef6fb"
         offset="0"
         id="stop4382" />
      <stop
         style="stop-opacity:1;stop-color:#ecca56"
         offset="0.291209"
         id="stop4384" />
      <stop
         style="stop-opacity:1;stop-color:#262525"
         offset="1"
         id="stop4386" />
    </linearGradient>
    <clipPath
       clipPathUnits="userSpaceOnUse"
       id="clipPath6144">
      <path
         d="M 0,330 457,330 457,0 0,0 0,330 Z"
         id="path6146"
         inkscape:connector-curvature="0" />
    </clipPath>
  </defs>
  <sodipodi:namedview
     id="base"
     pagecolor="#ffffff"
     bordercolor="#666666"
     borderopacity="1.0"
     inkscape:pageopacity="0.0"
     inkscape:pageshadow="2"
     inkscape:zoom="1"
     inkscape:cx="47.62295"
     inkscape:cy="508.1181"
     inkscape:document-units="px"
     inkscape:current-layer="layer1"
     showgrid="false"
     inkscape:window-width="1920"
     inkscape:window-height="1029"
     inkscape:window-x="0"
     inkscape:window-y="0"
     inkscape:window-maximized="1"
     fit-margin-top="0"
     fit-margin-left="0"
     fit-margin-right="0"
     fit-margin-bottom="0"
     units="mm" />
  <metadata
     id="metadata7699">
    <rdf:RDF>
      <cc:Work
         rdf:about="">
        <dc:format>image/svg+xml</dc:format>
        <dc:type
           rdf:resource="http://purl.org/dc/dcmitype/StillImage" />
        <dc:title></dc:title>
      </cc:Work>
    </rdf:RDF>
  </metadata>
  <g
     inkscape:label="Layer 1"
     inkscape:groupmode="layer"
     id="layer1"
     transform="translate(-206.56055,534.99697)">
    <circle
       style="opacity:1;fill:#999999;fill-opacity:1;fill-rule:nonzero;stroke:none;stroke-opacity:1"
       id="path4154-6"
       cx="403.06055"
       cy="-272.63474"
       r="36.599998" />
    <path
       inkscape:connector-curvature="0"
       d="m 750.06049,-226.03477 -5.77343,-5.56957 c -21.44435,-18.29999 -35.46566,-30.63261 -35.46566,-45.74999 0,-12.33262 9.89739,-21.88044 22.68152,-21.88044 7.01066,0 14.02131,3.18261 18.55761,8.35435 4.53631,-5.17174 11.54696,-8.35435 18.55761,-8.35435 12.78414,0 22.68153,9.54782 22.68153,21.88044 0,15.11738 -14.0213,27.45 -35.46566,45.74999 z"
       id="path6-7"
       style="fill:#800000;fill-opacity:1"
       sodipodi:nodetypes="ccsscsscc" />
    <path
       style="fill:#999999"
       d="M 749.27471,-1.5250036 802.64724,64.717207 750.10187,135.69101 697.78467,64.717207 Z"
       id="polygon5-5"
       inkscape:connector-curvature="0"
       sodipodi:nodetypes="ccccc" />
    <path
       style="fill:#800000"
       id="path6-3-3"
       d="m 406.82562,-25.366858 20.01732,57.539258 51.2469,5.34678 c 3.55433,0.3728 5.00029,5.75883 2.30224,8.5941 l -38.8714,40.90045 11.6485,60.84544 c 0.80779,4.22839 -2.96463,7.55419 -6.01812,5.30756 l -45.22687,-32.25732 -42.85577,32.25732 c -3.06156,2.23681 -6.82592,-1.08898 -6.01812,-5.30756 L 364.69879,87.01373 325.81932,46.10347 c -2.69805,-2.83527 -1.26016,-8.2213 2.30224,-8.5941 l 51.24691,-5.34678 20.0173,-57.529448 c 1.38943,-4.002733 6.05044,-4.002733 7.43985,0 z"
       inkscape:connector-curvature="0"
       sodipodi:nodetypes="cccccccccccccccc" />
  </g>
</svg>
