<?xml version="1.0" encoding="UTF-8" standalone="no"?>
<!-- Created with Inkscape (http://www.inkscape.org/) -->

<svg
   xmlns:dc="http://purl.org/dc/elements/1.1/"
   xmlns:cc="http://creativecommons.org/ns#"
   xmlns:rdf="http://www.w3.org/1999/02/22-rdf-syntax-ns#"
   xmlns:svg="http://www.w3.org/2000/svg"
   xmlns="http://www.w3.org/2000/svg"
   xmlns:sodipodi="http://sodipodi.sourceforge.net/DTD/sodipodi-0.dtd"
   xmlns:inkscape="http://www.inkscape.org/namespaces/inkscape"
   width="210mm"
   height="297mm"
   viewBox="0 0 744.0945 1052.3622"
   id="svg7694"
   version="1.1"
   inkscape:version="0.91 r13725"
   sodipodi:docname="schild-hart-circel-ruit-ster-laag-1-en-2.svg">
  <defs
     id="defs7696">
    <linearGradient
       x1="0"
       y1="0"
       x2="1"
       y2="0"
       gradientUnits="userSpaceOnUse"
       gradientTransform="matrix(-147.52,-207.34875,207.34875,-147.52,361.62143,470.5997)"
       spreadMethod="pad"
       id="linearGradient4380">
      <stop
         style="stop-opacity:1;stop-color:#fef6fb"
         offset="0"
         id="stop4382" />
      <stop
         style="stop-opacity:1;stop-color:#ecca56"
         offset="0.291209"
         id="stop4384" />
      <stop
         style="stop-opacity:1;stop-color:#262525"
         offset="1"
         id="stop4386" />
    </linearGradient>
    <clipPath
       clipPathUnits="userSpaceOnUse"
       id="clipPath6144">
      <path
         d="M 0,330 457,330 457,0 0,0 0,330 Z"
         id="path6146"
         inkscape:connector-curvature="0" />
    </clipPath>
  </defs>
  <sodipodi:namedview
     id="base"
     pagecolor="#ffffff"
     bordercolor="#666666"
     borderopacity="1.0"
     inkscape:pageopacity="0.0"
     inkscape:pageshadow="2"
     inkscape:zoom="1"
     inkscape:cx="196.12295"
     inkscape:cy="548.11809"
     inkscape:document-units="px"
     inkscape:current-layer="layer1"
     showgrid="false"
     inkscape:window-width="1920"
     inkscape:window-height="1029"
     inkscape:window-x="0"
     inkscape:window-y="0"
     inkscape:window-maximized="1"
     fit-margin-top="0"
     fit-margin-left="0"
     fit-margin-right="0"
     fit-margin-bottom="0"
     units="mm" />
  <metadata
     id="metadata7699">
    <rdf:RDF>
      <cc:Work
         rdf:about="">
        <dc:format>image/svg+xml</dc:format>
        <dc:type
           rdf:resource="http://purl.org/dc/dcmitype/StillImage" />
        <dc:title></dc:title>
      </cc:Work>
    </rdf:RDF>
  </metadata>
  <g
     inkscape:label="Layer 1"
     inkscape:groupmode="layer"
     id="layer1"
     transform="translate(-206.56055,534.99697)">
    <path
       style="fill:#aa8800;fill-opacity:1;fill-rule:evenodd;stroke:none"
       d="M 373.01562 87.033203 C 241.54304 124.499 132.35318 121.94336 12 121.94336 L 12 560.42969 C 12 877.50948 252.67283 884.54923 373.01562 999.86133 C 493.34288 884.54923 734.02148 877.50944 734.02148 560.42969 L 734.02148 121.94336 C 613.6683 121.94336 502.47075 122.46079 373.01562 87.033203 z M 387.00781 116.03906 C 495.41903 142.50261 596.80139 146.61876 706.33203 147.21094 L 706.33203 382.99805 L 387.00781 382.99805 L 387.00781 116.03906 z M 359.20898 116.24609 L 359.20898 382.99805 L 39.689453 382.99805 L 39.689453 147.33203 C 65.973613 147.34003 92.293975 147.24936 118.57812 146.62695 C 201.50856 144.58395 279.54816 136.45077 359.20898 116.24609 z M 39.689453 410.97656 L 359.20898 410.97656 L 359.20898 952.61133 C 297.35726 908.71035 224.40968 879.66205 163.47266 834.45117 C 69.512546 764.72662 39.689453 676.11531 39.689453 561.07812 L 39.689453 410.97656 z M 387.00781 410.97656 L 706.33203 410.97656 L 706.33203 561.07812 C 706.33203 676.11531 676.51096 764.72662 582.56641 834.45117 C 521.70552 879.61632 448.81518 908.65196 387.00781 952.47852 L 387.00781 410.97656 z "
       transform="translate(206.56055,-534.99697)"
       id="path4388" />
  </g>
</svg>
