<?xml version="1.0" encoding="UTF-8" standalone="no"?>
<!-- Created with Inkscape (http://www.inkscape.org/) -->

<svg
   xmlns:dc="http://purl.org/dc/elements/1.1/"
   xmlns:cc="http://creativecommons.org/ns#"
   xmlns:rdf="http://www.w3.org/1999/02/22-rdf-syntax-ns#"
   xmlns:svg="http://www.w3.org/2000/svg"
   xmlns="http://www.w3.org/2000/svg"
   xmlns:sodipodi="http://sodipodi.sourceforge.net/DTD/sodipodi-0.dtd"
   xmlns:inkscape="http://www.inkscape.org/namespaces/inkscape"
   width="210mm"
   height="297mm"
   viewBox="0 0 744.0945 1052.3622"
   id="svg7694"
   version="1.1"
   inkscape:version="0.91 r13725"
   sodipodi:docname="schild-hart-circel-ruit-ster-geheel.svg">
  <defs
     id="defs7696">
    <linearGradient
       x1="0"
       y1="0"
       x2="1"
       y2="0"
       gradientUnits="userSpaceOnUse"
       gradientTransform="matrix(-147.52,-207.34875,207.34875,-147.52,361.62143,470.5997)"
       spreadMethod="pad"
       id="linearGradient4380">
      <stop
         style="stop-opacity:1;stop-color:#fef6fb"
         offset="0"
         id="stop4382" />
      <stop
         style="stop-opacity:1;stop-color:#ecca56"
         offset="0.291209"
         id="stop4384" />
      <stop
         style="stop-opacity:1;stop-color:#262525"
         offset="1"
         id="stop4386" />
    </linearGradient>
    <clipPath
       clipPathUnits="userSpaceOnUse"
       id="clipPath6144">
      <path
         d="M 0,330 457,330 457,0 0,0 0,330 Z"
         id="path6146"
         inkscape:connector-curvature="0" />
    </clipPath>
  </defs>
  <sodipodi:namedview
     id="base"
     pagecolor="#ffffff"
     bordercolor="#666666"
     borderopacity="1.0"
     inkscape:pageopacity="0.0"
     inkscape:pageshadow="2"
     inkscape:zoom="1"
     inkscape:cx="196.12295"
     inkscape:cy="508.1181"
     inkscape:document-units="px"
     inkscape:current-layer="layer1"
     showgrid="false"
     inkscape:window-width="1920"
     inkscape:window-height="1029"
     inkscape:window-x="0"
     inkscape:window-y="0"
     inkscape:window-maximized="1"
     fit-margin-top="0"
     fit-margin-left="0"
     fit-margin-right="0"
     fit-margin-bottom="0"
     units="mm" />
  <metadata
     id="metadata7699">
    <rdf:RDF>
      <cc:Work
         rdf:about="">
        <dc:format>image/svg+xml</dc:format>
        <dc:type
           rdf:resource="http://purl.org/dc/dcmitype/StillImage" />
        <dc:title />
      </cc:Work>
    </rdf:RDF>
  </metadata>
  <g
     inkscape:label="Layer 1"
     inkscape:groupmode="layer"
     id="layer1"
     transform="translate(-206.56055,534.99697)">
    <path
       style="fill:#999999;fill-opacity:1;fill-rule:evenodd;stroke:none;stroke-width:1px;stroke-linecap:butt;stroke-linejoin:miter;stroke-opacity:1"
       d="m 578.09008,-436.08089 -140.77092,23.70876 -203.00642,8.8908 0,266.72376 345.25913,2.96361 z"
       id="path7725"
       inkscape:connector-curvature="0" />
    <path
       style="fill:#800000;fill-rule:evenodd;stroke:none;stroke-width:1px;stroke-linecap:butt;stroke-linejoin:miter;stroke-opacity:1"
       d="m 581.05366,-434.59911 -1.48179,290.43256 354.14989,4.4454 -5.92718,-265.24196 -152.62526,1.48178 -125.95292,-16.29978 z"
       id="path8324"
       inkscape:connector-curvature="0" />
    <path
       style="fill:#800000;fill-opacity:1;fill-rule:evenodd;stroke:none;stroke-width:1px;stroke-linecap:butt;stroke-linejoin:miter;stroke-opacity:1"
       d="m 226.90377,-136.75757 349.70449,1.48183 0,571.97431 -124.4711,-68.16274 -87.42613,-54.82657 -60.75373,-56.30836 -48.89938,-72.60813 -23.70875,-75.57172 z"
       id="path8326"
       inkscape:connector-curvature="0" />
    <path
       style="fill:#999999;fill-opacity:1;fill-rule:evenodd;stroke:none;stroke-width:1px;stroke-linecap:butt;stroke-linejoin:miter;stroke-opacity:1"
       d="m 576.60826,-133.79396 354.14993,-5.92719 -1.48183,216.342638 -23.70876,96.316902 -51.86295,88.90791 -91.87154,74.08997 -97.79872,57.79014 -84.46252,47.41756 z"
       id="path8328"
       inkscape:connector-curvature="0" />
    <path
       style="fill:#aa8800;fill-opacity:1;fill-rule:evenodd;stroke:none"
       d="M 373.01562 87.033203 C 241.54304 124.499 132.35318 121.94336 12 121.94336 L 12 560.42969 C 12 877.50948 252.67283 884.54923 373.01562 999.86133 C 493.34288 884.54923 734.02148 877.50944 734.02148 560.42969 L 734.02148 121.94336 C 613.6683 121.94336 502.47075 122.46079 373.01562 87.033203 z M 387.00781 116.03906 C 495.41903 142.50261 596.80139 146.61876 706.33203 147.21094 L 706.33203 382.99805 L 387.00781 382.99805 L 387.00781 116.03906 z M 359.20898 116.24609 L 359.20898 382.99805 L 39.689453 382.99805 L 39.689453 147.33203 C 65.973613 147.34003 92.293975 147.24936 118.57812 146.62695 C 201.50856 144.58395 279.54816 136.45077 359.20898 116.24609 z M 39.689453 410.97656 L 359.20898 410.97656 L 359.20898 952.61133 C 297.35726 908.71035 224.40968 879.66205 163.47266 834.45117 C 69.512546 764.72662 39.689453 676.11531 39.689453 561.07812 L 39.689453 410.97656 z M 387.00781 410.97656 L 706.33203 410.97656 L 706.33203 561.07812 C 706.33203 676.11531 676.51096 764.72662 582.56641 834.45117 C 521.70552 879.61632 448.81518 908.65196 387.00781 952.47852 L 387.00781 410.97656 z "
       transform="translate(206.56055,-534.99697)"
       id="path4388" />
    <path
       inkscape:connector-curvature="0"
       d="m 403.54955,-174.53474 -14.24336,-14.24348 c -52.90434,-46.8 -87.49565,-78.33914 -87.49565,-117 0,-31.53914 24.41739,-55.95653 55.95652,-55.95653 17.29566,0 34.59131,8.13913 45.7826,21.36523 11.19131,-13.2261 28.48697,-21.36523 45.78261,-21.36523 31.53915,0 55.95654,24.41739 55.95654,55.95653 0,38.66086 -34.59131,70.2 -87.49566,117 z"
       id="path6"
       style="fill:#800000;fill-opacity:1"
       sodipodi:nodetypes="ccsscsscc" />
    <circle
       style="opacity:1;fill:#999999;fill-opacity:1;fill-rule:nonzero;stroke:none;stroke-opacity:1"
       id="path4154"
       cx="751.16034"
       cy="-268.13477"
       r="93.599998" />
    <path
       style="fill:#999999"
       d="M 403.54955,-87.634747 532.60127,72.535143 405.54955,244.14574 279.04955,72.535143 Z"
       id="polygon5"
       inkscape:connector-curvature="0"
       sodipodi:nodetypes="ccccc" />
    <path
       style="fill:#800000"
       id="path6-3"
       d="M 759.33734,-87.749758 793.10625,9.3180977 879.559,18.338043 c 5.99609,0.628914 8.43541,9.715061 3.88383,14.498115 l -65.57545,68.998442 19.65083,102.64533 c 1.36275,7.13321 -5.00128,12.74378 -10.15247,8.95375 l -76.29704,-54.41759 -72.29704,54.41759 c -5.16481,3.77348 -11.51522,-1.83709 -10.15247,-8.95375 L 688.27002,101.8346 622.68094,32.819607 c -4.55157,-4.783053 -2.12588,-13.8692 3.88384,-14.498114 l 86.45275,-9.0199457 33.7689,-97.0513053 c 2.34393,-6.752546 10.20699,-6.752546 12.55091,0 z"
       inkscape:connector-curvature="0"
       sodipodi:nodetypes="cccccccccccccccc" />
    <circle
       style="opacity:1;fill:#999999;fill-opacity:1;fill-rule:nonzero;stroke:none;stroke-opacity:1"
       id="path4154-6"
       cx="403.06055"
       cy="-272.63474"
       r="36.599998" />
    <path
       inkscape:connector-curvature="0"
       d="m 750.06049,-226.03477 -5.77343,-5.56957 c -21.44435,-18.29999 -35.46566,-30.63261 -35.46566,-45.74999 0,-12.33262 9.89739,-21.88044 22.68152,-21.88044 7.01066,0 14.02131,3.18261 18.55761,8.35435 4.53631,-5.17174 11.54696,-8.35435 18.55761,-8.35435 12.78414,0 22.68153,9.54782 22.68153,21.88044 0,15.11738 -14.0213,27.45 -35.46566,45.74999 z"
       id="path6-7"
       style="fill:#800000;fill-opacity:1"
       sodipodi:nodetypes="ccsscsscc" />
    <path
       style="fill:#999999"
       d="M 749.27471,-1.5250036 802.64724,64.717207 750.10187,135.69101 697.78467,64.717207 Z"
       id="polygon5-5"
       inkscape:connector-curvature="0"
       sodipodi:nodetypes="ccccc" />
    <path
       style="fill:#800000"
       id="path6-3-3"
       d="m 406.82562,-25.366858 20.01732,57.539258 51.2469,5.34678 c 3.55433,0.3728 5.00029,5.75883 2.30224,8.5941 l -38.8714,40.90045 11.6485,60.84544 c 0.80779,4.22839 -2.96463,7.55419 -6.01812,5.30756 l -45.22687,-32.25732 -42.85577,32.25732 c -3.06156,2.23681 -6.82592,-1.08898 -6.01812,-5.30756 L 364.69879,87.01373 325.81932,46.10347 c -2.69805,-2.83527 -1.26016,-8.2213 2.30224,-8.5941 l 51.24691,-5.34678 20.0173,-57.529448 c 1.38943,-4.002733 6.05044,-4.002733 7.43985,0 z"
       inkscape:connector-curvature="0"
       sodipodi:nodetypes="cccccccccccccccc" />
  </g>
</svg>
