<?xml version="1.0" encoding="UTF-8" standalone="no"?>
<!-- Created with Inkscape (http://www.inkscape.org/) -->

<svg
   xmlns:dc="http://purl.org/dc/elements/1.1/"
   xmlns:cc="http://creativecommons.org/ns#"
   xmlns:rdf="http://www.w3.org/1999/02/22-rdf-syntax-ns#"
   xmlns:svg="http://www.w3.org/2000/svg"
   xmlns="http://www.w3.org/2000/svg"
   xmlns:sodipodi="http://sodipodi.sourceforge.net/DTD/sodipodi-0.dtd"
   xmlns:inkscape="http://www.inkscape.org/namespaces/inkscape"
   width="210mm"
   height="297mm"
   viewBox="0 0 744.0945 1052.3622"
   id="svg7694"
   version="1.1"
   inkscape:version="0.91 r13725"
   sodipodi:docname="schild-hart-circel-ruit-ster-laag-3.svg">
  <defs
     id="defs7696">
    <linearGradient
       x1="0"
       y1="0"
       x2="1"
       y2="0"
       gradientUnits="userSpaceOnUse"
       gradientTransform="matrix(-147.52,-207.34875,207.34875,-147.52,361.62143,470.5997)"
       spreadMethod="pad"
       id="linearGradient4380">
      <stop
         style="stop-opacity:1;stop-color:#fef6fb"
         offset="0"
         id="stop4382" />
      <stop
         style="stop-opacity:1;stop-color:#ecca56"
         offset="0.291209"
         id="stop4384" />
      <stop
         style="stop-opacity:1;stop-color:#262525"
         offset="1"
         id="stop4386" />
    </linearGradient>
    <clipPath
       clipPathUnits="userSpaceOnUse"
       id="clipPath6144">
      <path
         d="M 0,330 457,330 457,0 0,0 0,330 Z"
         id="path6146"
         inkscape:connector-curvature="0" />
    </clipPath>
  </defs>
  <sodipodi:namedview
     id="base"
     pagecolor="#ffffff"
     bordercolor="#666666"
     borderopacity="1.0"
     inkscape:pageopacity="0.0"
     inkscape:pageshadow="2"
     inkscape:zoom="1"
     inkscape:cx="262.32479"
     inkscape:cy="508.1181"
     inkscape:document-units="px"
     inkscape:current-layer="layer1"
     showgrid="false"
     inkscape:window-width="1920"
     inkscape:window-height="1029"
     inkscape:window-x="0"
     inkscape:window-y="0"
     inkscape:window-maximized="1"
     fit-margin-top="0"
     fit-margin-left="0"
     fit-margin-right="0"
     fit-margin-bottom="0"
     units="mm" />
  <metadata
     id="metadata7699">
    <rdf:RDF>
      <cc:Work
         rdf:about="">
        <dc:format>image/svg+xml</dc:format>
        <dc:type
           rdf:resource="http://purl.org/dc/dcmitype/StillImage" />
        <dc:title></dc:title>
      </cc:Work>
    </rdf:RDF>
  </metadata>
  <g
     inkscape:label="Layer 1"
     inkscape:groupmode="layer"
     id="layer1"
     transform="translate(-206.56055,534.99697)">
    <path
       inkscape:connector-curvature="0"
       d="m 403.54955,-174.53474 -14.24336,-14.24348 c -52.90434,-46.8 -87.49565,-78.33914 -87.49565,-117 0,-31.53914 24.41739,-55.95653 55.95652,-55.95653 17.29566,0 34.59131,8.13913 45.7826,21.36523 11.19131,-13.2261 28.48697,-21.36523 45.78261,-21.36523 31.53915,0 55.95654,24.41739 55.95654,55.95653 0,38.66086 -34.59131,70.2 -87.49566,117 z"
       id="path6"
       style="fill:#800000;fill-opacity:1"
       sodipodi:nodetypes="ccsscsscc" />
    <circle
       style="opacity:1;fill:#999999;fill-opacity:1;fill-rule:nonzero;stroke:none;stroke-opacity:1"
       id="path4154"
       cx="751.16034"
       cy="-268.13477"
       r="93.599998" />
    <path
       style="fill:#999999"
       d="M 403.54955,-87.634747 532.60127,72.535143 405.54955,244.14574 279.04955,72.535143 Z"
       id="polygon5"
       inkscape:connector-curvature="0"
       sodipodi:nodetypes="ccccc" />
    <path
       style="fill:#800000"
       id="path6-3"
       d="M 759.33734,-87.749758 793.10625,9.3180977 879.559,18.338043 c 5.99609,0.628914 8.43541,9.715061 3.88383,14.498115 l -65.57545,68.998442 19.65083,102.64533 c 1.36275,7.13321 -5.00128,12.74378 -10.15247,8.95375 l -76.29704,-54.41759 -72.29704,54.41759 c -5.16481,3.77348 -11.51522,-1.83709 -10.15247,-8.95375 L 688.27002,101.8346 622.68094,32.819607 c -4.55157,-4.783053 -2.12588,-13.8692 3.88384,-14.498114 l 86.45275,-9.0199457 33.7689,-97.0513053 c 2.34393,-6.752546 10.20699,-6.752546 12.55091,0 z"
       inkscape:connector-curvature="0"
       sodipodi:nodetypes="cccccccccccccccc" />
  </g>
</svg>
