<?xml version="1.0" encoding="UTF-8" standalone="no"?>
<!-- Created with Inkscape (http://www.inkscape.org/) -->

<svg
   xmlns:dc="http://purl.org/dc/elements/1.1/"
   xmlns:cc="http://creativecommons.org/ns#"
   xmlns:rdf="http://www.w3.org/1999/02/22-rdf-syntax-ns#"
   xmlns:svg="http://www.w3.org/2000/svg"
   xmlns="http://www.w3.org/2000/svg"
   xmlns:sodipodi="http://sodipodi.sourceforge.net/DTD/sodipodi-0.dtd"
   xmlns:inkscape="http://www.inkscape.org/namespaces/inkscape"
   width="210mm"
   height="297mm"
   viewBox="0 0 744.0945 1052.3622"
   id="svg7694"
   version="1.1"
   inkscape:version="0.91 r13725"
   sodipodi:docname="schild-draak-kroon-sb-ridder-laag-4.svg">
  <defs
     id="defs7696">
    <linearGradient
       x1="0"
       y1="0"
       x2="1"
       y2="0"
       gradientUnits="userSpaceOnUse"
       gradientTransform="matrix(-147.52,-207.34875,207.34875,-147.52,361.62143,470.5997)"
       spreadMethod="pad"
       id="linearGradient4380">
      <stop
         style="stop-opacity:1;stop-color:#fef6fb"
         offset="0"
         id="stop4382" />
      <stop
         style="stop-opacity:1;stop-color:#ecca56"
         offset="0.291209"
         id="stop4384" />
      <stop
         style="stop-opacity:1;stop-color:#262525"
         offset="1"
         id="stop4386" />
    </linearGradient>
    <clipPath
       clipPathUnits="userSpaceOnUse"
       id="clipPath6144">
      <path
         d="M 0,330 457,330 457,0 0,0 0,330 Z"
         id="path6146"
         inkscape:connector-curvature="0" />
    </clipPath>
  </defs>
  <sodipodi:namedview
     id="base"
     pagecolor="#ffffff"
     bordercolor="#666666"
     borderopacity="1.0"
     inkscape:pageopacity="0.0"
     inkscape:pageshadow="2"
     inkscape:zoom="1"
     inkscape:cx="205.99326"
     inkscape:cy="671.31336"
     inkscape:document-units="px"
     inkscape:current-layer="layer1"
     showgrid="false"
     inkscape:window-width="1920"
     inkscape:window-height="1029"
     inkscape:window-x="0"
     inkscape:window-y="0"
     inkscape:window-maximized="1"
     fit-margin-top="0"
     fit-margin-left="0"
     fit-margin-right="0"
     fit-margin-bottom="0"
     units="mm" />
  <metadata
     id="metadata7699">
    <rdf:RDF>
      <cc:Work
         rdf:about="">
        <dc:format>image/svg+xml</dc:format>
        <dc:type
           rdf:resource="http://purl.org/dc/dcmitype/StillImage" />
        <dc:title></dc:title>
      </cc:Work>
    </rdf:RDF>
  </metadata>
  <g
     inkscape:label="Layer 1"
     inkscape:groupmode="layer"
     id="layer1"
     transform="translate(-206.56055,534.99697)">
    <g
       transform="matrix(-0.92297837,0,0,-0.92297841,618.47042,-161.72979)"
       id="g6140"
       style="fill:#800000;fill-opacity:1">
      <g
         id="g6142"
         clip-path="url(#clipPath6144)"
         style="fill:#800000;fill-opacity:1">
        <g
           id="g6148"
           transform="translate(116.2852,180.4248)"
           style="fill:#800000;fill-opacity:1" />
        <g
           id="g6152"
           transform="translate(138.6309,93.3027)"
           style="fill:#800000;fill-opacity:1" />
        <g
           id="g6156"
           transform="translate(99.5444,126.54)"
           style="fill:#800000;fill-opacity:1" />
        <g
           id="g6160"
           transform="translate(282,68.335)"
           style="fill:#800000;fill-opacity:1" />
        <g
           id="g6164"
           transform="translate(170.7637,203.4951)"
           style="fill:#800000;fill-opacity:1">
          <path
             d="M 0,0 C 0,0 -0.001,0 -0.001,0 0.033,-0.014 0.017,-0.007 0,0"
             style="fill:#800000;fill-opacity:1;fill-rule:nonzero;stroke:none"
             id="path6166"
             inkscape:connector-curvature="0" />
        </g>
        <g
           id="g6168"
           transform="translate(155.3477,201.1265)"
           style="fill:#800000;fill-opacity:1">
          <path
             d="m 0,0 c 0,-2.644 -2.715,-4.788 -6.064,-4.788 -3.349,0 -6.064,2.144 -6.064,4.788 z"
             style="fill:#800000;fill-opacity:1;fill-rule:nonzero;stroke:none"
             id="path6170"
             inkscape:connector-curvature="0"
             sodipodi:nodetypes="cscc" />
        </g>
        <g
           id="g6172"
           transform="translate(234.9668,199.9541)"
           style="fill:#800000;fill-opacity:1">
          <path
             d="M 0,0 C -0.037,0.05 -0.071,0.102 -0.103,0.155 -0.106,0.161 -0.108,0.167 -0.112,0.173 -0.17,0.273 -0.221,0.378 -0.261,0.488 -0.273,0.52 -0.28,0.554 -0.29,0.586 -0.316,0.67 -0.341,0.754 -0.355,0.842 -0.37,0.923 -0.373,1.006 -0.377,1.09 c -0.001,0.007 -0.002,0.014 -0.002,0.02 0,0.007 -0.002,0.014 -0.002,0.021 0,0.022 -0.006,0.043 -0.006,0.066 0,0.006 0.002,0.011 0.002,0.018 0.001,0.079 0.013,0.159 0.024,0.239 0.004,0.03 0.007,0.061 0.012,0.091 0.016,0.084 0.038,0.166 0.065,0.248 0.016,0.052 0.033,0.103 0.054,0.154 0.012,0.029 0.017,0.059 0.031,0.088 0.016,0.036 0.041,0.066 0.059,0.1 0.033,0.06 0.067,0.118 0.106,0.176 C 0,2.362 0.038,2.41 0.077,2.458 0.081,2.462 0.083,2.466 0.087,2.471 0.111,2.5 0.129,2.532 0.155,2.56 0.179,2.585 0.207,2.603 0.231,2.626 0.265,2.659 0.299,2.688 0.334,2.718 0.35,2.731 0.364,2.744 0.38,2.757 0.438,2.803 0.498,2.845 0.56,2.884 0.582,2.898 0.605,2.91 0.627,2.923 0.634,2.926 0.64,2.93 0.646,2.934 0.665,2.944 0.68,2.958 0.698,2.968 0.708,2.973 0.717,2.975 0.727,2.979 0.791,3.011 0.856,3.038 0.923,3.063 0.931,3.065 0.939,3.068 0.947,3.071 0.958,3.075 0.97,3.078 0.981,3.082 1.026,3.098 1.071,3.115 1.118,3.128 1.18,3.144 1.242,3.152 1.305,3.163 1.377,3.174 1.448,3.187 1.52,3.191 1.558,3.192 1.596,3.189 1.634,3.189 1.729,3.189 1.824,3.186 1.917,3.172 1.936,3.169 1.954,3.164 1.973,3.16 1.977,3.16 1.98,3.159 1.984,3.158 2.563,3.136 3.982,3.082 6.073,3.001 6.771,2.97 7.539,2.955 8.386,2.903 9.244,2.815 10.171,2.719 11.163,2.618 13.138,2.395 15.402,2.236 17.771,1.823 20.152,1.429 22.759,1.126 25.46,0.562 c 2.706,-0.536 5.58,-1.019 8.505,-1.708 2.933,-0.65 5.97,-1.301 9.022,-2.084 1.53,-0.377 3.072,-0.758 4.619,-1.139 1.54,-0.409 3.086,-0.82 4.632,-1.232 3.096,-0.805 6.17,-1.685 9.196,-2.549 3.033,-0.841 5.987,-1.767 8.86,-2.614 5.732,-1.744 11.058,-3.444 15.605,-4.949 9.099,-3.007 15.105,-5.197 15.105,-5.197 0.367,-0.134 0.557,-0.541 0.423,-0.908 -0.132,-0.362 -0.531,-0.55 -0.894,-0.429 0,0 -6.035,2.03 -15.182,4.798 -4.574,1.386 -9.925,2.947 -15.679,4.539 -2.884,0.771 -5.85,1.619 -8.889,2.38 -3.034,0.783 -6.114,1.581 -9.212,2.304 -1.547,0.37 -3.092,0.739 -4.633,1.108 -1.546,0.339 -3.086,0.678 -4.615,1.014 -3.05,0.701 -6.072,1.269 -8.992,1.839 -2.915,0.61 -5.758,1.013 -8.44,1.473 -2.682,0.492 -5.238,0.72 -7.584,1.048 -2.359,0.351 -4.479,0.437 -6.371,0.607 -0.1,0.008 -0.192,0.015 -0.29,0.023 1.577,-0.802 3.358,-1.636 5.237,-2.741 1.976,-1.112 4.118,-2.317 6.384,-3.591 2.254,-1.287 4.679,-2.582 7.072,-4.061 2.416,-1.451 4.913,-2.951 7.45,-4.474 1.268,-0.761 2.546,-1.529 3.829,-2.299 1.27,-0.793 2.543,-1.589 3.818,-2.384 2.545,-1.594 5.09,-3.188 7.596,-4.757 2.516,-1.553 4.943,-3.158 7.313,-4.675 2.365,-1.525 4.652,-2.999 6.82,-4.397 2.154,-1.419 4.191,-2.76 6.071,-3.999 3.767,-2.466 6.875,-4.569 9.06,-6.027 2.178,-1.47 3.422,-2.31 3.422,-2.31 0.324,-0.219 0.41,-0.659 0.19,-0.984 -0.215,-0.318 -0.643,-0.407 -0.967,-0.202 l -0.006,0.005 c 0,0 -1.264,0.804 -3.476,2.213 -2.22,1.397 -5.378,3.412 -9.205,5.772 -1.91,1.186 -3.98,2.47 -6.168,3.829 -2.201,1.337 -4.523,2.747 -6.925,4.205 -2.406,1.45 -4.87,2.986 -7.421,4.468 -2.54,1.497 -5.121,3.018 -7.702,4.539 -1.291,0.758 -2.582,1.517 -3.868,2.273 -1.299,0.732 -2.592,1.463 -3.875,2.187 -2.566,1.448 -5.091,2.874 -7.534,4.253 -2.431,1.414 -4.838,2.614 -7.094,3.824 -2.261,1.194 -4.398,2.322 -6.371,3.364 -1.015,0.564 -2.018,1.055 -2.982,1.509 0.214,-0.211 0.424,-0.42 0.644,-0.637 0.347,-0.375 0.702,-0.76 1.064,-1.152 1.449,-1.568 3.018,-3.267 4.678,-5.064 1.641,-1.809 3.45,-3.664 5.173,-5.677 1.743,-1.999 3.545,-4.065 5.376,-6.164 1.833,-2.096 3.698,-4.223 5.499,-6.402 1.817,-2.166 3.635,-4.331 5.423,-6.463 1.802,-2.121 3.517,-4.254 5.195,-6.304 1.675,-2.052 3.294,-4.036 4.829,-5.917 1.517,-1.896 2.951,-3.688 4.275,-5.343 2.655,-3.302 4.826,-6.088 6.355,-8.03 1.521,-1.95 1.78874,-2.313426 1.78874,-2.313426 0.316157,-0.401947 0.635946,-0.997261 0.19642,-1.332208 -0.710371,-0.424842 -0.967534,-0.155956 -1.400366,0.470998 0,0 -0.202794,0.315636 -1.774794,2.216636 -1.582,1.894 -3.828,4.612 -6.572,7.832 -1.369,1.614 -2.851,3.362 -4.418,5.21 -1.585,1.834 -3.257,3.767 -4.988,5.767 -1.731,1.997 -3.505,4.075 -5.36,6.138 -1.844,2.074 -3.717,4.18 -5.59,6.287 -1.857,2.121 -3.775,4.185 -5.659,6.22 -1.881,2.036 -3.732,4.04 -5.524,5.979 -1.775,1.959 -3.594,3.716 -5.263,5.455 -1.681,1.72 -3.271,3.347 -4.738,4.848 -0.366,0.375 -0.725,0.742 -1.076,1.101 -0.37,0.347 -0.731,0.684 -1.084,1.014 -0.148,0.138 -0.288,0.269 -0.433,0.404 0.403,-0.903 0.827,-1.852 1.272,-2.848 0.819,-1.883 1.639,-3.937 2.542,-6.101 0.907,-2.161 1.75,-4.481 2.684,-6.857 0.926,-2.379 1.786,-4.872 2.712,-7.385 0.902,-2.521 1.762,-5.101 2.652,-7.67 1.704,-5.163 3.363,-10.337 4.818,-15.218 1.48,-4.873 2.762,-9.449 3.849,-13.374 2.158,-7.854 3.416,-13.144 3.416,-13.144 0.09,-0.38 -0.146,-0.763 -0.526,-0.853 -0.373,-0.089 -0.749,0.138 -0.849,0.506 0,0 -1.406,5.222 -3.79,12.983 -1.199,3.879 -2.611,8.399 -4.23,13.207 -1.592,4.815 -3.397,9.915 -5.244,14.996 -0.961,2.525 -1.891,5.063 -2.86,7.538 -0.994,2.466 -1.919,4.914 -2.908,7.242 -0.994,2.325 -1.898,4.599 -2.857,6.707 -0.955,2.108 -1.829,4.121 -2.686,5.942 -0.872,1.807 -1.672,3.465 -2.381,4.933 -0.695,1.47 -1.417,2.74 -1.952,3.791 C 0.789,-1.503 0.24,-0.458 0,0 m -69.267,-24.587 c 14.785,-14.771 -3.208,-59.108 10.125,-74.552 -23.5,12.493 2.106,53.44 -10.125,74.552"
             style="fill:#800000;fill-opacity:1;fill-rule:nonzero;stroke:none"
             id="path6174"
             inkscape:connector-curvature="0"
             sodipodi:nodetypes="cccccccssscccccccccccccccccccccccccscccccccccccccccccccccccccccccccccccccccccccccccccccscccccccccccccccccccccccccccccccccccccccccccccccccccccc" />
        </g>
      </g>
    </g>
    <path
       style="fill:#999999"
       d="m 359.47361,186.0939 c -10.76857,-7.69891 -21.05752,-25.89492 -23.46069,-41.49074 -0.8354,-5.43175 -0.61762,-18.57498 0.36678,-21.85725 0.26555,-0.88756 -0.0166,-0.59099 -0.68426,0.66219 -0.64127,1.2504 -1.65576,4.87964 -2.25246,8.06478 -3.7721,20.12689 8.28346,46.72399 25.14793,55.48178 4.25807,2.21102 4.64837,1.83139 0.88486,-0.86076 z m 113.21705,-29.16898 c 10.32247,-13.91851 14.86707,-29.22124 14.12494,-47.55986 -0.4559,-11.280062 -1.84334,-16.754678 -4.70485,-18.571999 l -2.05743,-1.306406 1.47209,4.93573 c 2.20135,7.381265 2.18538,27.280245 -0.0166,36.388585 -2.93927,12.08602 -7.86771,22.20784 -15.29959,31.42086 l -3.87727,4.80617 3.50515,-2.79048 c 1.92798,-1.53452 5.0178,-4.82956 6.86674,-7.3226 z M 406.42112,66.292258 c 0.10165,-63.9078623 -0.64459,-102.356403 -1.77238,-91.819385 -0.79583,7.438102 -2.0654,61.55245 -2.0532,87.531058 0.0124,25.645283 1.09075,72.491179 1.9096,82.920569 l 0.53734,6.85521 0.64053,-10.48457 c 0.35225,-5.76617 0.68281,-39.51771 0.73895,-75.002882 z M 528.40653,131.54465 C 528.61647,111.37489 520.62709,95.122124 503.529,80.934828 489.90572,69.630947 469.12198,59.432357 432.05341,45.860531 l -8.80438,-3.222846 0.21991,2.446686 c 0.22031,2.44594 0.2228,2.448056 19.53478,9.883876 40.60243,15.634727 56.13253,24.474792 69.49686,39.559322 5.54357,6.257121 7.04283,8.546061 9.81222,14.979511 3.92644,9.12212 5.82044,19.53802 5.26683,28.96555 -0.20994,3.55332 -0.12945,5.05054 0.19376,3.62916 0.3037,-1.3306 0.58871,-6.0812 0.63223,-10.55714 z M 468.6753,39.237176 c 2.82977,-3.791224 7.43723,-14.987275 9.11178,-22.140837 2.15439,-9.2042221 2.15987,-25.615777 0.0166,-34.678933 -3.30102,-13.926863 -9.89533,-24.52288 -18.01685,-28.950359 -2.14614,-1.169364 -3.09697,-1.507759 -2.11348,-0.750312 4.38121,3.366944 10.61518,11.456735 12.79268,16.5993 3.95951,9.354044 5.25438,16.499764 5.29674,29.2330744 0.0697,15.8633846 -2.55606,27.5086516 -8.53976,38.1219696 -1.3174,2.33736 -2.3959,4.424325 -2.3959,4.637337 0,1.255747 2.28832,0.07634 3.85292,-2.069498 z m -80.40119,-9.035399 c -0.002,-1.512863 -1.49834,-2.666586 -8.99511,-6.93748 -23.01433,-13.111536 -32.56973,-26.9161274 -32.73943,-47.298684 -0.0767,-8.714886 -0.95702,-6.963785 -1.10007,2.178327 -0.19086,12.23277 3.64567,22.4642117 12.03677,32.093544 2.97291,3.411463 7.49763,7.788032 10.05502,9.725674 5.26148,3.986436 18.49487,12.009718 19.85178,12.03594 0.49112,0.06348 0.89324,-0.801925 0.89233,-1.797321 z m 133.48674,-53.984774 c 1.76509,-16.929024 -9.60974,-37.510897 -23.31547,-42.189143 -1.07671,-0.36678 -0.0763,0.822134 2.52312,2.988756 12.30168,10.268156 18.69418,25.141792 18.0903,42.091477 l -0.28753,8.066598 1.26429,-3.268735 c 0.69463,-1.797653 1.47184,-5.257866 1.72501,-7.688953 z"
       id="path7643"
       inkscape:connector-curvature="0"
       sodipodi:nodetypes="ccccccccccccccccccccccccscccsccccscccccccccccccscccscccsccccccccccc" />
    <path
       style="fill:#800000"
       d="m 775.14517,176.75807 c -3.83039,-2.0841 -6.29915,-4.50748 -8.43092,-8.27621 -3.25277,-5.7506 -11.78551,-14.96362 -13.10399,-14.1488 -0.76362,0.47196 -0.7816,5.16746 -0.029,7.7887 0.75367,2.62809 0.87855,9.17759 0.18836,9.86803 -0.70766,0.70766 -8.49718,-7.502 -13.45163,-14.17709 -7.57299,-10.20298 -8.44818,-10.58129 -7.42677,-3.21028 0.58899,4.24999 -0.12987,11.18286 -1.2297,11.86268 -0.24562,0.15226 -0.90871,-0.43536 -1.47299,-1.30512 -0.56419,-0.86972 -2.50257,-3.2687 -4.30757,-5.33094 -5.16464,-5.90079 -7.06672,-9.88142 -8.07664,-16.90283 -0.45544,-3.16585 -0.38503,-3.48935 1.30093,-5.98757 1.64008,-2.43017 1.80139,-3.10687 2.02129,-8.47884 0.30994,-7.58365 0.29292,-7.53698 2.45221,-6.42017 0.9575,0.49518 1.74093,1.15961 1.74093,1.47656 0,0.31698 0.71384,0.84536 1.58634,1.17421 0.8725,0.32902 2.34006,0.9715 3.26135,1.42789 2.35363,1.16625 4.07561,1.03718 6.86687,-0.51444 1.3301,-0.7394 3.70119,-1.83204 5.26911,-2.4281 3.69032,-1.40274 8.14082,-4.47017 10.78388,-7.43275 l 2.0975,-2.35092 4.24791,1.04646 c 2.33641,0.57543 4.76716,1.27766 5.40168,1.56042 7.60949,3.39093 9.02929,3.18679 13.02885,-1.873 2.15069,-2.72082 2.33192,-3.21547 2.1587,-5.89006 -0.18256,-2.81126 -0.13651,-2.91379 1.24404,-2.75832 2.14061,0.24065 5.32828,1.99063 6.01199,3.29965 0.33151,0.63463 1.58929,2.74006 2.79521,4.67882 2.85101,4.58328 4.19343,8.50498 5.32206,15.54719 0.50535,3.15293 1.19264,6.77093 1.52738,8.03997 0.98602,3.73806 5.82753,14.5239 8.67455,19.32467 0.6585,1.11045 2.11062,3.70625 3.22692,5.76861 1.11634,2.06219 2.4805,4.26869 3.03162,4.90321 1.33686,1.53934 2.45242,3.75131 1.88752,3.74264 -0.24853,-0.0166 -1.54025,-0.62866 -2.8691,-1.38844 -1.32877,-0.7599 -3.15521,-1.54394 -4.05859,-1.74234 -2.03303,-0.44656 -5.49112,-3.59083 -8.79276,-7.99486 -3.01059,-4.01581 -4.3979,-4.92587 -5.63041,-3.69335 -0.76454,0.76454 -0.73309,1.21048 0.2784,3.95013 0.62717,1.69853 1.32313,4.75911 1.54676,6.80119 0.44138,4.03161 1.266,6.06568 3.1502,7.77081 1.47473,1.33462 1.57592,2.16728 0.20289,1.67197 -2.83815,-1.02406 -8.1105,-5.2411 -14.84256,-11.87159 -4.1182,-4.05606 -7.87189,-7.3006 -8.34155,-7.21015 -1.12386,0.21658 -1.75368,3.47631 -1.36736,7.07696 0.30993,2.88313 2.81777,9.04399 4.84268,11.89347 0.58903,0.82901 0.90564,1.67264 0.7035,1.87478 -0.48547,0.48553 -0.23068,0.57211 -3.4196,-1.16285 z m -83.35742,-16.20792 c 1.25376,-2.32587 7.5846,-6.48963 9.86699,-6.48963 0.6731,0 1.96594,-0.38379 2.873,-0.85279 1.86947,-0.96677 2.1387,-2.02839 2.63758,-10.39596 0.32487,-5.44266 2.80737,-19.32758 3.78169,-21.14814 0.76047,-1.42103 4.02303,-1.39668 5.79911,0.0436 1.2657,1.02614 1.35979,1.49813 1.33241,6.68567 l -0.0249,5.58162 -3.24529,2.99635 c -1.97383,1.82251 -3.39342,3.66655 -3.62357,4.70716 -0.20827,0.94092 -0.61642,2.46342 -0.90743,3.3833 -0.29085,0.91984 -0.52921,3.17131 -0.52921,5.00324 0,2.71127 0.26761,3.64953 1.44208,5.04464 1.73255,2.05904 1.80733,3.05701 0.32943,4.39471 -0.78727,0.71247 -1.67355,0.91412 -3.02854,0.6889 -10.47437,-1.74093 -10.38803,-1.74007 -13.16419,-0.14189 -3.10605,1.78844 -4.32197,1.96021 -3.53436,0.49904 z m 37.36962,-38.90269 c -2.83039,-1.96437 -11.91466,-10.33156 -11.91466,-10.97417 0,-0.31657 -0.77877,-1.72886 -1.73056,-3.1392 -0.95179,-1.4103 -1.7306,-2.88868 -1.7306,-3.2852 0,-0.39665 -0.24604,-0.9676 -0.5471,-1.26903 -0.3008,-0.30164 -0.98091,-2.10547 -1.51112,-4.009129 -1.92291,-6.904454 -1.52569,-35.495547 0.59704,-42.975763 0.84404,-2.974319 0.96391,-2.999214 6.65286,-1.384284 4.5844,1.301386 11.91015,1.298233 15.50346,-0.0166 3.12846,-1.135964 4.91702,-1.163763 5.80811,-0.09003 1.74402,1.273818 4.2118,1.240002 6.02685,1.699695 3.03888,0.776948 4.09228,0.774127 9.9479,-0.02074 3.60198,-0.492242 6.97826,-0.730396 7.50295,-0.529127 0.83645,0.321136 0.91029,1.126381 0.60078,6.552492 -1.55967,27.342812 -2.2989,32.065661 -6.09523,38.942936 -1.30615,2.36621 -3.69123,5.56863 -5.30018,7.11643 -1.609,1.54797 -3.76725,3.61821 -4.79617,4.60074 -1.02899,0.98242 -3.63161,2.79953 -5.78367,4.03793 -2.15198,1.23841 -4.60161,2.69899 -5.44358,3.2455 -1.79308,1.16418 -4.78143,2.64141 -5.47968,2.70878 -0.26802,0.0207 -1.30665,-0.52133 -2.3074,-1.21592 z m -17.99935,-7.67125 c -3.3325,-2.13181 -3.77247,-3.1811 -2.24699,-5.35892 1.20343,-1.71825 3.13767,-1.7085 3.14696,0.0207 0.0207,0.71379 0.65277,2.42756 1.44213,3.80839 2.38523,4.17248 2.08696,4.36791 -2.3421,1.53466 z m -49.48365,-10.83242 c -2.1163,-2.78123 -3.84782,-5.205964 -3.84782,-5.388476 0,-0.182976 -0.90859,-1.393204 -2.01895,-2.690486 -1.11053,-1.297362 -2.01905,-2.674055 -2.01905,-3.059457 0,-0.594516 7.56722,-4.616176 11.24862,-5.978261 0.63464,-0.234838 4.07369,-1.896326 7.6424,-3.6924 3.56875,-1.796035 6.95776,-3.265454 7.53133,-3.265454 0.5734,0 1.92221,-0.649041 2.99727,-1.442166 1.07514,-0.793214 2.2089,-1.442166 2.51962,-1.442166 0.50146,0 8.5912,-3.756788 11.61332,-5.393125 4.37994,-2.371465 9.86206,-4.845825 10.23111,-4.617754 0.24189,0.1502 0.44075,1.814627 0.44075,3.699492 0,3.09601 -0.11658,3.427105 -1.21031,3.427105 -1.12996,0 -1.18684,0.220308 -0.85629,3.316861 0.66398,6.221443 0.93167,11.761276 0.59469,12.306584 -0.5602,0.906317 -5.31882,-2.938926 -6.03303,-4.875031 -1.49606,-4.055856 -2.34176,-5.599872 -2.88378,-5.264921 -0.82525,0.509957 -0.71808,1.951541 0.62753,8.445155 0.65945,3.182433 1.05444,5.930709 0.87778,6.107382 -0.57158,0.571446 -8.10648,-8.025773 -8.99902,-10.26783 -1.20542,-3.02747 -1.60182,-3.253588 -2.34844,-1.339636 -0.92253,2.365024 -0.25474,8.405948 1.45486,13.171899 0.79069,2.203472 1.34628,4.097628 1.23455,4.209321 -0.1112,0.111614 -1.38342,-0.593766 -2.82624,-1.567549 -2.77675,-1.873946 -5.57912,-5.873493 -7.22903,-10.317069 -2.41304,-6.499137 -4.18597,-0.914573 -3.03656,9.5646 0.40163,3.660532 0.86665,7.011372 1.03361,7.446362 0.16679,0.43507 0.0809,0.79069 -0.19086,0.79039 -0.53701,-5.8e-4 -5.96104,-6.235913 -8.9927,-10.337575 -2.96511,-4.011787 -3.33442,-3.778567 -3.27857,2.069911 0.0249,2.802515 0.23608,6.595274 0.46477,8.428394 0.40537,3.24505 0.23775,4.35492 -0.52094,3.45482 -0.2058,-0.24396 -2.1044,-2.71778 -4.22062,-5.49892 z m 187.20856,-7.493156 c -0.33068,-0.398313 -0.78766,-1.501622 -1.01552,-2.451625 -0.22862,-0.950091 -0.67073,-2.052907 -0.98407,-2.450629 -0.31367,-0.397899 -0.65052,-2.97905 -0.74931,-5.736174 -0.24605,-6.877358 1.33793,-10.00283 7.36561,-14.532416 1.77932,-1.337111 2.35168,-0.09834 0.86072,1.863254 -3.53477,4.650659 -3.93449,7.271727 -2.41706,15.851684 0.754,4.263175 0.75114,4.987888 -0.0207,6.489629 -0.92909,1.796863 -2.04954,2.153563 -3.03493,0.966277 z M 657.03529,85.285136 c -0.46046,-0.731272 -0.42532,-1.495566 0.13277,-2.884371 1.43544,-3.570992 1.78483,-5.934823 1.42184,-9.619914 -0.30661,-3.1134 -0.2058,-3.807743 0.64036,-4.426858 2.29321,-1.676915 3.80649,-4.462248 3.45163,-6.353623 -0.1892,-1.00938 -0.0846,-1.995482 0.23193,-2.19132 1.3147,-0.812625 6.44972,7.512867 6.44972,10.457237 0,0.817025 -1.29326,3.52278 -2.87396,6.012537 -1.5807,2.489786 -3.03759,5.178488 -3.23741,5.974937 -0.41199,1.640736 -3.57086,4.394417 -4.78703,4.172688 -0.44192,-0.08049 -1.08535,-0.59422 -1.42989,-1.141313 z M 831.90897,69.983731 c -3.6899,-8.543404 -3.46793,-12.383003 0.92391,-15.981753 2.14957,-1.761432 2.91274,-2.04506 5.5027,-2.04506 1.65389,0 3.53356,0.282135 4.177,0.626256 1.15327,0.617169 1.15427,0.644013 0.0688,1.874825 -3.89475,4.417481 -8.23729,13.486446 -8.23729,17.202489 0,2.548463 -0.86906,1.95013 -2.43553,-1.676757 z M 635.69439,60.690019 c -1.23309,-1.287114 -1.49705,-1.98556 -1.19915,-3.172769 0.43768,-1.743633 1.19186,-1.899886 3.01299,-0.624264 0.95631,0.669778 1.2821,1.476019 1.2821,3.172729 0,2.758564 -0.88097,2.936233 -3.09594,0.624304 z m 71.20901,-6.142401 c -1.45316,-4.482868 -1.34222,-5.696793 0.38503,-4.213056 0.55713,0.478591 1.49668,1.042653 2.08792,1.253258 0.79624,0.283794 0.97535,0.717866 0.69106,1.674136 -0.21119,0.709942 -0.53448,2.264254 -0.7184,3.454031 -0.18381,1.189823 -0.49474,2.159079 -0.69094,2.15397 -0.19625,-0.01657 -0.98578,-1.950086 -1.75472,-4.322339 z m 7.8157,-5.605182 c -1.2294,-0.616216 -2.7167,-0.994483 -3.3052,-0.840554 -1.33085,0.348104 -3.57187,-3.003694 -3.29794,-4.932707 0.16429,-1.158701 0.55783,-1.326695 3.46282,-1.479048 l 3.27749,-0.172185 2.2755,3.056097 c 2.72106,3.654347 3.65568,5.376156 3.17771,5.854 -0.49271,0.492865 -2.94043,-0.158077 -5.59038,-1.48606 z m 20.99375,0.431665 c -0.97631,-1.176417 -0.19915,-8.602944 1.18617,-11.334254 1.46723,-2.892792 4.12389,-4.29222 9.07444,-4.780064 2.28256,-0.224878 4.15008,-0.2589 4.15008,-0.07593 0,0.182973 -1.13493,1.431958 -2.52191,2.775042 -1.98469,1.921792 -2.60469,2.994733 -2.91105,5.03776 -0.44744,2.983655 -0.76479,3.451376 -4.59905,6.780273 -3.13982,2.726 -3.37158,2.810515 -4.37868,1.59713 z m -7.50597,-29.47629 c -0.0166,-0.341466 0.66085,-1.245043 1.47327,-2.0083 1.79869,-1.689778 4.92429,-1.770186 8.50574,-0.219484 5.76956,2.498924 4.89458,3.278984 -3.40774,3.038215 -4.1804,-0.121567 -6.56875,-0.415899 -6.57127,-0.810929 z m 12.02382,-4.635428 c -1.69754,-1.145757 -3.67049,-2.307528 -4.38433,-2.581573 -2.67281,-1.026181 -0.93092,-3.0962179 3.58228,-4.2572841 5.20521,-1.3390601 6.08,-1.2206471 6.08,0.8232519 0,1.4198412 -1.71518,8.0988362 -2.07971,8.0988362 -0.0615,0 -1.50074,-0.937475 -3.19824,-2.083231 z"
       id="path3663"
       inkscape:connector-curvature="0"
       sodipodi:nodetypes="cssscssccsccccsccccccccsccccssccccccscscccscccccccsccsccccccsccsccccscscccscccccssccccccccccscccscscsscsscssccccsccssccscccsccccccccscsccccccccsssccccssscssssccsscccccccccccccsccccccsscscccsccccsssssss" />
    <path
       style="fill:#999999"
       d="m 644.03425,-202.59681 c 0.41818,-1.40183 0.88482,-2.92864 1.03701,-3.39307 0.15227,-0.46445 0.27674,-0.94532 0.27674,-1.06871 0,-0.12282 -1.40897,-1.10718 -3.13103,-2.18609 -1.72214,-1.07892 -3.41748,-2.1475 -3.76753,-2.37458 -0.62414,-0.40495 -0.65326,-0.35847 -1.52673,2.47254 -1.53555,4.97598 -1.7786,4.26981 2.35728,6.84699 1.97573,1.2311 3.68269,2.24127 3.79318,2.24488 0.11077,0.0166 0.5429,-1.14028 0.961,-2.54196 z m 224.63655,0.30537 c 4.1709,-2.5836 3.92375,-1.87382 2.3867,-6.85479 -0.87359,-2.83063 -0.90258,-2.87768 -1.52681,-2.47257 -0.34935,0.22737 -2.04531,1.29566 -3.76749,2.37458 -1.7221,1.07896 -3.13102,2.06269 -3.13102,2.18608 0,0.12322 0.12446,0.60426 0.27673,1.06875 0.15227,0.46445 0.61891,1.99129 1.03701,3.39305 0.4181,1.4017 0.83732,2.54858 0.93138,2.54858 0.0942,0 1.80117,-1.00971 3.79342,-2.24368 z m -202.73466,0.76795 c 2.57879,-0.9771 2.91839,-3.62605 0.6175,-4.81591 -2.097,-1.08443 -5.47719,0.27549 -5.47719,2.2036 0,2.04298 2.63045,3.45689 4.85969,2.61231 z m 179.04578,-0.0959 c 3.04917,-1.27404 2.21613,-4.72604 -1.22019,-5.05618 -3.99146,-0.38337 -5.42748,3.69227 -1.80923,5.13514 1.03245,0.41159 1.90972,0.38877 3.02938,-0.0784 z m -143.83718,-7.16467 c 6.15307,-1.55522 10.32065,-5.06656 10.32065,-8.69564 0,-1.73923 -0.58128,-2.91283 -2.16244,-4.36573 -2.69189,-2.47366 -6.60788,-3.63893 -12.25518,-3.64681 -2.9264,-0.0207 -4.36839,0.139 -6.34827,0.62962 -6.28135,1.55668 -10.6612,5.15414 -10.68435,8.7758 -0.0207,3.61053 4.41039,6.89154 10.63515,7.87068 2.52717,0.39747 7.805,0.1116 10.49444,-0.56792 z m 118.23451,0.1394 c 2.36413,-0.61584 5.04536,-1.89702 6.32898,-3.02406 1.27799,-1.12207 2.26567,-3.05556 2.25691,-4.41827 -0.0207,-3.6217 -4.40303,-7.21915 -10.68443,-8.77575 -1.97984,-0.49071 -3.42187,-0.63377 -6.34819,-0.62966 -4.03942,0.0166 -6.50245,0.45764 -9.37239,1.72019 -1.81187,0.79703 -4.10812,2.83441 -4.65135,4.127 -0.89474,2.12908 -0.19542,4.86147 1.71455,6.70228 2.2942,2.21056 6.79404,4.14704 10.99851,4.73313 2.53423,0.35351 7.59838,0.12779 9.75741,-0.43486 z m -90.72117,-1.22052 c 1.04407,-0.71953 1.42855,-1.29624 1.43901,-2.1585 0.0207,-1.81893 -2.39665,-3.20732 -4.55099,-2.61239 -2.05303,0.5668 -2.98242,2.23463 -2.13153,3.82466 0.73177,1.36736 3.823,1.92524 5.24351,0.94623 z m 54.75571,0.0564 c 2.36673,-1.22388 1.79072,-4.06253 -0.97959,-4.8274 -2.15443,-0.59489 -4.57319,0.79359 -4.55104,2.6124 0.0249,2.12256 3.22878,3.40536 5.53063,2.215 z m -25.82465,-6.42076 c 2.33691,-2.88312 3.3523,-4.35072 3.1741,-4.58747 -0.14397,-0.19127 -1.73583,-2.15102 -3.53713,-4.35449 l -3.27509,-4.00652 -3.47573,4.2504 c -1.9115,2.33765 -3.47556,4.32168 -3.47556,4.40872 0,0.25683 6.75272,8.52868 6.96212,8.52868 0.10498,0 1.73741,-1.90777 3.62729,-4.23932 z m -94.27428,3.63734 c 2.57859,-0.97698 2.91822,-3.62601 0.61734,-4.81587 -2.11385,-1.09311 -5.47706,0.27549 -5.47706,2.22915 0,1.98519 2.68082,3.41225 4.85972,2.58672 z m 183.93977,0.0166 c 3.38346,-0.93967 2.72917,-4.81338 -0.87149,-5.15929 -3.99142,-0.38337 -5.42744,3.69224 -1.80928,5.13506 0.9542,0.38046 1.3842,0.3842 2.68077,0.0207 z m -120.63762,-8.58369 c 1.01568,-0.52514 1.45046,-1.25309 1.45046,-2.42772 0,-1.0629 -1.30667,-2.26604 -2.75654,-2.53805 -1.96557,-0.36885 -4.23381,1.04485 -4.23381,2.6387 0,0.78604 1.01515,2.1399 1.86056,2.48158 0.98269,0.39665 2.75695,0.32321 3.67933,-0.15518 z m 59.46129,-0.68492 c 0.97324,-1.08937 1.04543,-2.01133 0.23815,-3.03817 -1.18106,-1.50138 -3.76661,-1.71742 -5.37865,-0.44939 -1.00937,0.794 -1.30781,1.63643 -0.94664,2.67223 0.45714,1.31139 1.81326,1.99436 3.68451,1.85557 1.32844,-0.0983 1.70858,-0.26305 2.40296,-1.04024 z m -160.4864,-22.65744 c 1.36737,-1.23736 0.0374,-6.01278 -2.00103,-7.17708 -3.20127,-1.82985 -3.52631,4.23799 -0.36927,6.89437 1.05352,0.88644 1.62759,0.95498 2.37034,0.28255 z m 259.16687,-0.28254 c 2.32388,-1.95553 3.01175,-6.11618 1.17381,-7.09988 -1.58298,-0.84715 -4.07693,2.42283 -4.07693,5.34542 0,2.44631 1.21107,3.1782 2.90312,1.75446 z M 755.71689,-256.9712 c 1.41217,-0.73032 1.61082,-2.27711 0.43429,-3.38242 -1.63506,-1.53597 -5.0737,-0.5373 -5.0737,1.47358 0,1.92702 2.56415,2.98198 4.63941,1.90884 z m 6.96669,-63.06013 c -3.24463,-3.55764 -14.49151,-3.55017 -17.51142,0 2.71032,3.73468 14.57652,3.96412 17.51142,0 z m -10.98457,-13.84882 c -0.19791,-0.19542 -3.1448,0.80673 -4.46345,1.51838 -1.30101,0.61506 -3.09249,2.23284 -3.25608,2.69148 0.008,0.46116 2.79868,1.84051 5.2526,2.32363 2.91581,0.62746 2.43353,0.8101 2.51975,-3.03888 -0.0481,-1.43238 -0.0427,-2.42226 -0.0532,-3.49461 z m 7.82512,6.54328 c 2.01066,-0.44408 4.66029,-1.47917 4.66029,-1.8206 0,-0.16845 -0.60867,-0.88897 -1.35272,-1.60186 -1.29819,-1.24392 -3.43453,-2.42731 -5.12792,-2.84059 l -0.80097,-0.19543 0,3.38109 c 0,3.83364 -0.12654,3.68447 2.62132,3.07747 z"
       id="path4150"
       inkscape:connector-curvature="0"
       sodipodi:nodetypes="ccscccccccccccsccscccsscccccccscccccccccccsccccccsccccccccscsssccsscccccccscsccccccccccccsccccscsssscccccccccccccscccc" />
  </g>
</svg>
