<?xml version="1.0" encoding="UTF-8" standalone="no"?>
<!-- Created with Inkscape (http://www.inkscape.org/) -->

<svg
   xmlns:dc="http://purl.org/dc/elements/1.1/"
   xmlns:cc="http://creativecommons.org/ns#"
   xmlns:rdf="http://www.w3.org/1999/02/22-rdf-syntax-ns#"
   xmlns:svg="http://www.w3.org/2000/svg"
   xmlns="http://www.w3.org/2000/svg"
   xmlns:sodipodi="http://sodipodi.sourceforge.net/DTD/sodipodi-0.dtd"
   xmlns:inkscape="http://www.inkscape.org/namespaces/inkscape"
   width="210mm"
   height="297mm"
   viewBox="0 0 744.0945 1052.3622"
   id="svg7694"
   version="1.1"
   inkscape:version="0.91 r13725"
   sodipodi:docname="schild-draak-kroon-sb-ridder-geheel.svg">
  <defs
     id="defs7696">
    <linearGradient
       x1="0"
       y1="0"
       x2="1"
       y2="0"
       gradientUnits="userSpaceOnUse"
       gradientTransform="matrix(-147.52,-207.34875,207.34875,-147.52,361.62143,470.5997)"
       spreadMethod="pad"
       id="linearGradient4380">
      <stop
         style="stop-opacity:1;stop-color:#fef6fb"
         offset="0"
         id="stop4382" />
      <stop
         style="stop-opacity:1;stop-color:#ecca56"
         offset="0.291209"
         id="stop4384" />
      <stop
         style="stop-opacity:1;stop-color:#262525"
         offset="1"
         id="stop4386" />
    </linearGradient>
    <clipPath
       clipPathUnits="userSpaceOnUse"
       id="clipPath6144">
      <path
         d="M 0,330 457,330 457,0 0,0 0,330 Z"
         id="path6146"
         inkscape:connector-curvature="0" />
    </clipPath>
  </defs>
  <sodipodi:namedview
     id="base"
     pagecolor="#ffffff"
     bordercolor="#666666"
     borderopacity="1.0"
     inkscape:pageopacity="0.0"
     inkscape:pageshadow="2"
     inkscape:zoom="0.5"
     inkscape:cx="-50.06161"
     inkscape:cy="441.67014"
     inkscape:document-units="px"
     inkscape:current-layer="layer1"
     showgrid="false"
     inkscape:window-width="1920"
     inkscape:window-height="1029"
     inkscape:window-x="0"
     inkscape:window-y="0"
     inkscape:window-maximized="1"
     fit-margin-top="0"
     fit-margin-left="0"
     fit-margin-right="0"
     fit-margin-bottom="0"
     units="mm" />
  <metadata
     id="metadata7699">
    <rdf:RDF>
      <cc:Work
         rdf:about="">
        <dc:format>image/svg+xml</dc:format>
        <dc:type
           rdf:resource="http://purl.org/dc/dcmitype/StillImage" />
        <dc:title />
      </cc:Work>
    </rdf:RDF>
  </metadata>
  <g
     inkscape:label="Layer 1"
     inkscape:groupmode="layer"
     id="layer1"
     transform="translate(-206.56055,534.99697)">
    <path
       style="fill:#999999;fill-opacity:1;fill-rule:evenodd;stroke:none;stroke-width:1px;stroke-linecap:butt;stroke-linejoin:miter;stroke-opacity:1"
       d="m 578.09008,-436.08089 -140.77092,23.70876 -203.00642,8.8908 0,266.72376 345.25913,2.96361 z"
       id="path7725"
       inkscape:connector-curvature="0" />
    <path
       style="fill:#800000;fill-rule:evenodd;stroke:none;stroke-width:1px;stroke-linecap:butt;stroke-linejoin:miter;stroke-opacity:1"
       d="m 581.05366,-434.59911 -1.48179,290.43256 354.14989,4.4454 -5.92718,-265.24196 -152.62526,1.48178 -125.95292,-16.29978 z"
       id="path8324"
       inkscape:connector-curvature="0" />
    <path
       style="fill:#800000;fill-opacity:1;fill-rule:evenodd;stroke:none;stroke-width:1px;stroke-linecap:butt;stroke-linejoin:miter;stroke-opacity:1"
       d="m 226.90377,-136.75757 349.70449,1.48183 0,571.97431 -124.4711,-68.16274 -87.42613,-54.82657 -60.75373,-56.30836 -48.89938,-72.60813 -23.70875,-75.57172 z"
       id="path8326"
       inkscape:connector-curvature="0" />
    <path
       style="fill:#999999;fill-opacity:1;fill-rule:evenodd;stroke:none;stroke-width:1px;stroke-linecap:butt;stroke-linejoin:miter;stroke-opacity:1"
       d="m 576.60826,-133.79396 354.14993,-5.92719 -1.48183,216.342638 -23.70876,96.316902 -51.86295,88.90791 -91.87154,74.08997 -97.79872,57.79014 -84.46252,47.41756 z"
       id="path8328"
       inkscape:connector-curvature="0" />
    <path
       style="fill:#aa8800;fill-opacity:1;fill-rule:evenodd;stroke:none"
       d="M 373.01562 87.033203 C 241.54304 124.499 132.35318 121.94336 12 121.94336 L 12 560.42969 C 12 877.50948 252.67283 884.54923 373.01562 999.86133 C 493.34288 884.54923 734.02148 877.50944 734.02148 560.42969 L 734.02148 121.94336 C 613.6683 121.94336 502.47075 122.46079 373.01562 87.033203 z M 387.00781 116.03906 C 495.41903 142.50261 596.80139 146.61876 706.33203 147.21094 L 706.33203 382.99805 L 387.00781 382.99805 L 387.00781 116.03906 z M 359.20898 116.24609 L 359.20898 382.99805 L 39.689453 382.99805 L 39.689453 147.33203 C 65.973613 147.34003 92.293975 147.24936 118.57812 146.62695 C 201.50856 144.58395 279.54816 136.45077 359.20898 116.24609 z M 39.689453 410.97656 L 359.20898 410.97656 L 359.20898 952.61133 C 297.35726 908.71035 224.40968 879.66205 163.47266 834.45117 C 69.512546 764.72662 39.689453 676.11531 39.689453 561.07812 L 39.689453 410.97656 z M 387.00781 410.97656 L 706.33203 410.97656 L 706.33203 561.07812 C 706.33203 676.11531 676.51096 764.72662 582.56641 834.45117 C 521.70552 879.61632 448.81518 908.65196 387.00781 952.47852 L 387.00781 410.97656 z "
       transform="translate(206.56055,-534.99697)"
       id="path4388" />
    <g
       transform="matrix(-0.92297837,0,0,-0.92297841,618.47042,-161.72979)"
       id="g6140"
       style="fill:#800000;fill-opacity:1">
      <g
         id="g6142"
         clip-path="url(#clipPath6144)"
         style="fill:#800000;fill-opacity:1">
        <g
           id="g6148"
           transform="translate(116.2852,180.4248)"
           style="fill:#800000;fill-opacity:1">
          <path
             d="m 0,0 -3.354,5.876 c 0,0 -11.334,-1.974 -19.167,-2.105 0,0 13.18,-5.082 22.521,-3.771"
             style="fill:#800000;fill-opacity:1;fill-rule:nonzero;stroke:none"
             id="path6150"
             inkscape:connector-curvature="0" />
        </g>
        <g
           id="g6152"
           transform="translate(138.6309,93.3027)"
           style="fill:#800000;fill-opacity:1">
          <path
             d="m 0,0 c -2.24,4.298 -3.36,8.64 -3.888,12.292 -0.41,2.843 -0.523,5.585 -0.43,8.157 -4.972,-3.731 -18.81,-14.36 -18.81,-14.36 l -14.126,18.79 c -0.001,0 -0.001,0.002 -0.002,0.003 -4.606,6.127 -6.665,16.337 -7.962,21.561 l -0.002,-0.014 c -2.556,11.595 -9.301,15.507 -16.585,6.676 7.799,2.611 9.069,-13.965 9.069,-21.044 0,-7.081 -1.77,-20.766 -9.069,-17.847 2.239,-4.336 8.611,-3.997 13.055,2.117 2.542,2.742 6.899,3.947 12.348,-5.017 C -30.932,1.93 -25.819,-7.84 -24.629,-11.02 -21.256,-6.019 -7.881,-5.13 0,0"
             style="fill:#800000;fill-opacity:1;fill-rule:nonzero;stroke:none"
             id="path6154"
             inkscape:connector-curvature="0" />
        </g>
        <g
           id="g6156"
           transform="translate(99.5444,126.54)"
           style="fill:#800000;fill-opacity:1">
          <path
             d="m 0,0 c 10.837,18.623 6.263,31.673 -6.426,24.188 4.405,0.341 5.189,-3.766 3.137,-8.898 C -2.977,11.32 -1.806,5.075 0,0"
             style="fill:#800000;fill-opacity:1;fill-rule:nonzero;stroke:none"
             id="path6158"
             inkscape:connector-curvature="0" />
        </g>
        <g
           id="g6160"
           transform="translate(282,68.335)"
           style="fill:#800000;fill-opacity:1">
          <path
             d="M 0,0 C -16.219,9.495 -24.210264,13.661586 -45.783264,9.4375864 -56.490264,-2.5934132 -52.612,-11.388 -20.722,-20.201 c 0,0 -2.857,-6.079 -9.167,-13.032 -0.119,-0.119 -0.234,-0.243 -0.346,-0.375 -0.012,-0.014 -0.026,-0.026 -0.037,-0.04 -0.27,-0.292 -0.546,-0.586 -0.829,-0.881 -4.041,-3.927 -10.965,-5.423 -23.53,-6.474 l 0.02,-0.003 c -17.949,-1.231 -25.178,-7.915 -12.601,-15.355 -4.297,6.023 16.252,7.161 25.216,7.161 8.967,0 28.392,-2.279 22.603,-7.161 5.26,1.693 5.088,8.08 -1.74,11.556 l 0.004,-10e-4 c -3.124,2.052 -5.068,3.481 -1.506,7.245 12.952,12.496 27.457,23.109 27.457,23.109 C 3.355,-13.026 -4,-9.476 0,0"
             style="fill:#800000;fill-opacity:1;fill-rule:nonzero;stroke:none"
             id="path6162"
             inkscape:connector-curvature="0"
             sodipodi:nodetypes="ccccccccccscccccc" />
        </g>
        <g
           id="g6164"
           transform="translate(170.7637,203.4951)"
           style="fill:#800000;fill-opacity:1">
          <path
             d="M 0,0 C 0,0 -0.001,0 -0.001,0 0.033,-0.014 0.017,-0.007 0,0"
             style="fill:#800000;fill-opacity:1;fill-rule:nonzero;stroke:none"
             id="path6166"
             inkscape:connector-curvature="0" />
        </g>
        <g
           id="g6168"
           transform="translate(155.3477,201.1265)"
           style="fill:#800000;fill-opacity:1">
          <path
             d="m 0,0 c 0,-2.644 -2.715,-4.788 -6.064,-4.788 -3.349,0 -6.064,2.144 -6.064,4.788 L 0,0 Z m -54.317,-9.686 c 0.374,0.12 0.765,0.234 1.166,0.346 0.239,0.068 0.483,0.133 0.73,0.197 0.175,0.045 0.358,0.089 0.538,0.133 0.371,0.09 0.748,0.177 1.134,0.259 0.36,0.077 0.728,0.151 1.104,0.223 0.08,0.014 0.16,0.029 0.241,0.044 11.031,2.032 24.487,1.398 45.056,-6.874 l 1.179,4.209 7.623,-3.507 1.572,4.62 6.797,-1.001 C 6.426,-1.011 9.749,2.062 14.848,3.787 c -0.035,0.013 -0.017,0.006 10e-4,0 7.769,1.768 23.417,6.361 26.246,10.025 -5.649,-2.23 -54.315,-1.346 -64.127,-4.604 l 6.956,-8.46 c -9,-0.526 -38.077,1.052 -48.41,0 4.749,-2.015 7.775,-5.806 10.169,-10.434"
             style="fill:#800000;fill-opacity:1;fill-rule:nonzero;stroke:none"
             id="path6170"
             inkscape:connector-curvature="0" />
        </g>
        <g
           id="g6172"
           transform="translate(234.9668,199.9541)"
           style="fill:#800000;fill-opacity:1">
          <path
             d="M 0,0 C -0.037,0.05 -0.071,0.102 -0.103,0.155 -0.106,0.161 -0.108,0.167 -0.112,0.173 -0.17,0.273 -0.221,0.378 -0.261,0.488 -0.273,0.52 -0.28,0.554 -0.29,0.586 -0.316,0.67 -0.341,0.754 -0.355,0.842 -0.37,0.923 -0.373,1.006 -0.377,1.09 c -0.001,0.007 -0.002,0.014 -0.002,0.02 0,0.007 -0.002,0.014 -0.002,0.021 0,0.022 -0.006,0.043 -0.006,0.066 0,0.006 0.002,0.011 0.002,0.018 0.001,0.079 0.013,0.159 0.024,0.239 0.004,0.03 0.007,0.061 0.012,0.091 0.016,0.084 0.038,0.166 0.065,0.248 0.016,0.052 0.033,0.103 0.054,0.154 0.012,0.029 0.017,0.059 0.031,0.088 0.016,0.036 0.041,0.066 0.059,0.1 0.033,0.06 0.067,0.118 0.106,0.176 C 0,2.362 0.038,2.41 0.077,2.458 0.081,2.462 0.083,2.466 0.087,2.471 0.111,2.5 0.129,2.532 0.155,2.56 0.179,2.585 0.207,2.603 0.231,2.626 0.265,2.659 0.299,2.688 0.334,2.718 0.35,2.731 0.364,2.744 0.38,2.757 0.438,2.803 0.498,2.845 0.56,2.884 0.582,2.898 0.605,2.91 0.627,2.923 0.634,2.926 0.64,2.93 0.646,2.934 0.665,2.944 0.68,2.958 0.698,2.968 0.708,2.973 0.717,2.975 0.727,2.979 0.791,3.011 0.856,3.038 0.923,3.063 0.931,3.065 0.939,3.068 0.947,3.071 0.958,3.075 0.97,3.078 0.981,3.082 1.026,3.098 1.071,3.115 1.118,3.128 1.18,3.144 1.242,3.152 1.305,3.163 1.377,3.174 1.448,3.187 1.52,3.191 1.558,3.192 1.596,3.189 1.634,3.189 1.729,3.189 1.824,3.186 1.917,3.172 1.936,3.169 1.954,3.164 1.973,3.16 1.977,3.16 1.98,3.159 1.984,3.158 2.563,3.136 3.982,3.082 6.073,3.001 6.771,2.97 7.539,2.955 8.386,2.903 9.244,2.815 10.171,2.719 11.163,2.618 13.138,2.395 15.402,2.236 17.771,1.823 20.152,1.429 22.759,1.126 25.46,0.562 c 2.706,-0.536 5.58,-1.019 8.505,-1.708 2.933,-0.65 5.97,-1.301 9.022,-2.084 1.53,-0.377 3.072,-0.758 4.619,-1.139 1.54,-0.409 3.086,-0.82 4.632,-1.232 3.096,-0.805 6.17,-1.685 9.196,-2.549 3.033,-0.841 5.987,-1.767 8.86,-2.614 5.732,-1.744 11.058,-3.444 15.605,-4.949 9.099,-3.007 15.105,-5.197 15.105,-5.197 0.367,-0.134 0.557,-0.541 0.423,-0.908 -0.132,-0.362 -0.531,-0.55 -0.894,-0.429 0,0 -6.035,2.03 -15.182,4.798 -4.574,1.386 -9.925,2.947 -15.679,4.539 -2.884,0.771 -5.85,1.619 -8.889,2.38 -3.034,0.783 -6.114,1.581 -9.212,2.304 -1.547,0.37 -3.092,0.739 -4.633,1.108 -1.546,0.339 -3.086,0.678 -4.615,1.014 -3.05,0.701 -6.072,1.269 -8.992,1.839 -2.915,0.61 -5.758,1.013 -8.44,1.473 -2.682,0.492 -5.238,0.72 -7.584,1.048 -2.359,0.351 -4.479,0.437 -6.371,0.607 -0.1,0.008 -0.192,0.015 -0.29,0.023 1.577,-0.802 3.358,-1.636 5.237,-2.741 1.976,-1.112 4.118,-2.317 6.384,-3.591 2.254,-1.287 4.679,-2.582 7.072,-4.061 2.416,-1.451 4.913,-2.951 7.45,-4.474 1.268,-0.761 2.546,-1.529 3.829,-2.299 1.27,-0.793 2.543,-1.589 3.818,-2.384 2.545,-1.594 5.09,-3.188 7.596,-4.757 2.516,-1.553 4.943,-3.158 7.313,-4.675 2.365,-1.525 4.652,-2.999 6.82,-4.397 2.154,-1.419 4.191,-2.76 6.071,-3.999 3.767,-2.466 6.875,-4.569 9.06,-6.027 2.178,-1.47 3.422,-2.31 3.422,-2.31 0.324,-0.219 0.41,-0.659 0.19,-0.984 -0.215,-0.318 -0.643,-0.407 -0.967,-0.202 l -0.006,0.005 c 0,0 -1.264,0.804 -3.476,2.213 -2.22,1.397 -5.378,3.412 -9.205,5.772 -1.91,1.186 -3.98,2.47 -6.168,3.829 -2.201,1.337 -4.523,2.747 -6.925,4.205 -2.406,1.45 -4.87,2.986 -7.421,4.468 -2.54,1.497 -5.121,3.018 -7.702,4.539 -1.291,0.758 -2.582,1.517 -3.868,2.273 -1.299,0.732 -2.592,1.463 -3.875,2.187 -2.566,1.448 -5.091,2.874 -7.534,4.253 -2.431,1.414 -4.838,2.614 -7.094,3.824 -2.261,1.194 -4.398,2.322 -6.371,3.364 -1.015,0.564 -2.018,1.055 -2.982,1.509 0.214,-0.211 0.424,-0.42 0.644,-0.637 0.347,-0.375 0.702,-0.76 1.064,-1.152 1.449,-1.568 3.018,-3.267 4.678,-5.064 1.641,-1.809 3.45,-3.664 5.173,-5.677 1.743,-1.999 3.545,-4.065 5.376,-6.164 1.833,-2.096 3.698,-4.223 5.499,-6.402 1.817,-2.166 3.635,-4.331 5.423,-6.463 1.802,-2.121 3.517,-4.254 5.195,-6.304 1.675,-2.052 3.294,-4.036 4.829,-5.917 1.517,-1.896 2.951,-3.688 4.275,-5.343 2.655,-3.302 4.826,-6.088 6.355,-8.03 1.521,-1.95 1.78874,-2.313426 1.78874,-2.313426 0.316157,-0.401947 0.635946,-0.997261 0.19642,-1.332208 -0.710371,-0.424842 -0.967534,-0.155956 -1.400366,0.470998 0,0 -0.202794,0.315636 -1.774794,2.216636 -1.582,1.894 -3.828,4.612 -6.572,7.832 -1.369,1.614 -2.851,3.362 -4.418,5.21 -1.585,1.834 -3.257,3.767 -4.988,5.767 -1.731,1.997 -3.505,4.075 -5.36,6.138 -1.844,2.074 -3.717,4.18 -5.59,6.287 -1.857,2.121 -3.775,4.185 -5.659,6.22 -1.881,2.036 -3.732,4.04 -5.524,5.979 -1.775,1.959 -3.594,3.716 -5.263,5.455 -1.681,1.72 -3.271,3.347 -4.738,4.848 -0.366,0.375 -0.725,0.742 -1.076,1.101 -0.37,0.347 -0.731,0.684 -1.084,1.014 -0.148,0.138 -0.288,0.269 -0.433,0.404 0.403,-0.903 0.827,-1.852 1.272,-2.848 0.819,-1.883 1.639,-3.937 2.542,-6.101 0.907,-2.161 1.75,-4.481 2.684,-6.857 0.926,-2.379 1.786,-4.872 2.712,-7.385 0.902,-2.521 1.762,-5.101 2.652,-7.67 1.704,-5.163 3.363,-10.337 4.818,-15.218 1.48,-4.873 2.762,-9.449 3.849,-13.374 2.158,-7.854 3.416,-13.144 3.416,-13.144 0.09,-0.38 -0.146,-0.763 -0.526,-0.853 -0.373,-0.089 -0.749,0.138 -0.849,0.506 0,0 -1.406,5.222 -3.79,12.983 -1.199,3.879 -2.611,8.399 -4.23,13.207 -1.592,4.815 -3.397,9.915 -5.244,14.996 -0.961,2.525 -1.891,5.063 -2.86,7.538 -0.994,2.466 -1.919,4.914 -2.908,7.242 -0.994,2.325 -1.898,4.599 -2.857,6.707 -0.955,2.108 -1.829,4.121 -2.686,5.942 -0.872,1.807 -1.672,3.465 -2.381,4.933 -0.695,1.47 -1.417,2.74 -1.952,3.791 C 0.789,-1.503 0.24,-0.458 0,0 m -69.267,-24.587 c 14.785,-14.771 -3.208,-59.108 10.125,-74.552 -23.5,12.493 2.106,53.44 -10.125,74.552 m 217.8,-37.767 0,19.229 c -20.536,-0.668 -37.5,-5.302 -37.5,-5.302 4.696,-1.061 9.874,-2.474 14.905,-4.073 -6.622,-2.768 -13.176,-6.363 -19.269,-11.224 l -0.006,0 c -4.826,-0.001 -21.679,-2.201 -37,-3.94 0.089,-0.852 0.286,-1.716 0.587,-2.566 0.57,-1.604 1.459,-3.15 2.532,-4.578 l 2.79,-3.712 -4.65,0.525 -2.362,0.267 -2.366,0.165 c -0.787,0.016 -1.576,0.062 -2.362,0.056 -0.785,-0.02 -1.574,0.003 -2.354,-0.059 -1.569,-0.063 -3.122,-0.247 -4.66,-0.486 -0.765,-0.136 -1.532,-0.273 -2.286,-0.454 -0.756,-0.173 -1.505,-0.369 -2.243,-0.598 -2.956,-0.894 -5.772,-2.203 -8.278,-3.945 -1.256,-0.865 -2.431,-1.841 -3.497,-2.91 -0.534,-0.533 -1.043,-1.089 -1.509,-1.668 -0.454,-0.553 -1.165761,-1.231 -1.438761,-1.703 l -1.112239,-1.171 -0.761,0.155 c -1.321,0.27 -2.653,0.52 -4.001,0.665 -0.671,0.088 -1.347,0.142 -2.025,0.188 -0.677,0.058 -1.356,0.059 -2.037,0.089 -2.721,0.031 -5.46,-0.189 -8.163,-0.691 -2.704,-0.497 -5.375,-1.255 -7.959,-2.264 -1.292,-0.504 -2.566,-1.064 -3.806,-1.693 -1.234,-0.628 -2.466,-1.317 -3.585,-2.087 L 4.101,-96.15 c -0.259,-0.177 -0.612,-0.112 -0.789,0.146 -0.168,0.244 -0.117,0.575 0.107,0.76 1.141,0.934 2.325,1.73 3.553,2.494 1.227,0.757 2.494,1.449 3.791,2.085 2.594,1.274 5.318,2.305 8.13,3.072 2.81,0.772 5.711,1.258 8.645,1.471 0.733,0.032 1.47,0.091 2.206,0.09 0.737,0.013 1.476,0.015 2.213,-0.017 1.023,-0.024 2.044,-0.111 3.064,-0.214 0.283,0.4 0.568,0.768 0.876,1.155 0.562,0.697 1.162,1.35 1.787,1.975 1.248,1.251 2.605,2.377 4.047,3.371 2.88,2.002 6.082,3.483 9.395,4.485 0.828,0.256 1.664,0.476 2.506,0.669 0.839,0.2 1.687,0.352 2.534,0.503 1.698,0.266 3.405,0.464 5.112,0.534 0.855,0.066 1.706,0.044 2.559,0.064 0.852,0.006 1.701,-0.041 2.552,-0.061 l 0.99,-0.069 c -0.333,0.67 -0.644,1.354 -0.9,2.072 -0.274018,1.151548 -0.75959,2.708994 -0.964,3.438 -2.339,7.945 2.968,15.52 21.944,14.976 2.752,0.027 5.481,-0.11 8.188,-0.369 -14.055,11.742 -11.324,23.817 19.886,30.466 -21.722,6.275 -20.145,23.848 8.225,31.42 l 2.775,0.292 C 87.284,15.262 31.187,22.153 -4.752,10.149 -9.195,8.665 -9.467,5.43 -8.229,0.86 c 3.16,-11.655 5.58,-30.03 4.206,-38.453 -0.117,-0.539 -0.233,-1.091 -0.353,-1.655 -10e-4,-0.002 -10e-4,-0.003 -10e-4,-0.004 l 0,0.001 c -1.367,-6.393 -3.391,-14.096 -15.962,-17.586 -3.888,-1.079 -15.696,-1.162 -19.318,3.545 l 16.672,-0.042 c -6.927,8.101 -18.418,9.312 -20.37,9.461 -0.002,0.007 -0.005,0.013 -0.007,0.019 l 16.672,-0.042 c -6.927,8.1 -18.418,9.311 -20.37,9.461 -0.003,0.006 -0.005,0.013 -0.007,0.018 l 16.671,-0.041 c -6.926,8.1 -18.417,9.311 -20.369,9.46 -0.003,0.007 -0.005,0.013 -0.007,0.019 l 16.671,-0.042 c -6.926,8.101 -18.417,9.312 -20.369,9.461 l -0.008,0.019 16.672,-0.042 c -6.926,8.101 -18.418,9.312 -20.369,9.462 -0.005,0.011 -0.008,0.019 -0.008,0.019 L -40.95,-6.153 C -51.584507,-1.0538425 -50.526252,2.3940807 -62.679,2.3151612 -65.752587,1.366 -70.734,-1.558 -58.599,-15.619 l -11.524,1.696 -1.969,-5.788 -7.408,3.408 -1.591,-5.681 c -8.728,6.162 -16.255,9.634 -25.284,11.207 3.172,-1.382 5.083,-3.161 5.083,-5.104 0,-4.398 -5.52,-7.962 -17.577,-7.962 -3.234,0 -6.299,0.258 -9.06,0.718 0.075,-0.196 0.15,-0.391 0.226,-0.586 4.167,-10.66 13.911,-5.791 28.245,-2.764 14.333,3.027 17.477,-0.884 14.994,-15.66 -2.46,-14.642 -7.529,-22.85 -11.296,-36.771 -1.231,-5.548 -1.451,-12.737 0.456,-19.705 0.002,0.007 0.003,0.014 0.005,0.022 0.006,-0.037 0.014,-0.078 0.02,-0.116 1.404,-5.078 3.945,-10.027 8.05,-14.124 2.744,-11.093 -3.884,-34.481 -9.107,-52.339 -2.131,-7.286 -21.519,-9.457 -21.519,-9.457 -13.597,-1.84 -17.485,-8.135 -6.354,-14.719 -2.22,6.381 19.087,7.16 28.053,7.16 8.967,0 22.349,-0.316 18.915,-5.461 6.131,1.973 5.68,8.731 -4.889,12.18 -4.488,1.646 -4.782,4.122 -4.392,8.42 0.061,0.423 0.127,0.848 0.2,1.277 0.043,0.194 0.077,0.383 0.098,0.564 1.424,8.013 9.764,16.472 17.257,18.977 -2.265,4.122 7.629,12.835 7.268,19.667 3.106,-1.124 7.84,-2.534 13.72,-3.336 4.574,-0.42 9.799,-0.594 15.473,-0.25 7.536,0.454 15.877,3.725 24.049,6.78 0.559,0.277 1.115,0.543 1.676,0.84 24.955,13.196 42.747,2.071 57.043,-6.87 7.326,-4.581 11.98,-8.907 18.845,-9.643 l -0.005,-0.033 c 9.037,-1.125 16.779,-0.563 25.934,1.926 3.616,-6.994 4.909,-17.44 5.307,-26.042 0.477,-6.41 -4.957,-8.599 -12.915,-9.293 -1.198,-0.056 -2.357,-0.127 -3.469,-0.214 -0.008,0 -0.016,-0.001 -0.023,-0.001 l 0.002,-0.001 c -17.201,-1.348 -23.914,-7.985 -11.578,-15.283 -4.297,6.023 14.836,7.161 23.801,7.161 8.967,0 29.809,-2.279 24.02,-7.161 5.259,1.693 5.087,8.08 -1.74,11.555 -3.263,2.157 -7.693,5.222 -8.427,11.137 -1.33,12.032 -2.311,29.576 1.588,39.458 -41.796,5.988 -40.545,27.398 -32.398,38.427 6.925,8.596 23.038,11.96 37.964,10.502 22.072,-2.537 17.792,-20.241 4.032,-20.241 -6.811,0 -12.333,4.36 -12.333,9.738 0,3.337 0.583,6.137 1.942,8.171 -6.645,0.366 -9.951,-0.354 -15.899,-1.92 -0.77,-1.979 -1.21,-4.073 -1.21,-6.251 0,-11.774 12.088,-21.318 27,-21.318 14.912,0 27,9.544 27,21.318 0,5.303 -2.461,10.148 -6.52,13.875 l 0.007,0 c -0.016,0.012 -0.033,0.023 -0.048,0.035 -2.412,2.205 -5.39,4.008 -8.753,5.286 -3.153,1.453 -6.389,2.513 -9.698,3.238 3.508,3.315 7.764,6.407 12.404,9.279 5.733,-2.202 10.622,-4.531 13.441,-6.663"
             style="fill:#800000;fill-opacity:1;fill-rule:nonzero;stroke:none"
             id="path6174"
             inkscape:connector-curvature="0"
             sodipodi:nodetypes="cccccccssscccccccccccccccccccccccccscccccccccccccccccccccccccccccccccccccccccccccccccccsccccccccccccccccccccccccccccccccccccccccccccccccccccccccccccccccccccccccccccccccccccccccccccccccccccccccccccccccsccccccccccccccccccccccccccccccsscccccccccsccscccccccccccccccccccccsccccccssccsssccccccc" />
        </g>
      </g>
    </g>
    <path
       style="fill:#999999"
       d="m 316.48491,217.45526 c -1.19115,-1.05638 -2.30678,-3.32615 -3.04872,-6.2033 -3.1465,-12.20236 2.86516,-27.90755 12.5713,-32.84186 2.91091,-1.47972 2.91843,-1.49574 1.56223,-3.1712 -3.80831,-4.7058 -5.7972,-13.58577 -5.81164,-25.95135 -0.0166,-22.23228 8.78082,-38.99596 22.45596,-42.7425 l 2.07846,-0.57075 -0.42938,6.36894 c -0.58859,8.67775 0.57725,21.37584 2.72571,29.73287 7.783,30.27739 29.47961,49.28507 64.01246,56.07825 11.16915,2.19725 33.81642,3.07938 43.12935,1.68003 34.51961,-5.187 57.42681,-26.38576 58.9949,-54.5946 0.61132,-10.98565 -3.09219,-24.57093 -8.92105,-32.72976 l -2.12642,-2.97614 -0.86632,9.02502 c -2.37558,24.76581 -13.26792,43.42419 -31.19279,53.43208 -9.2316,5.15452 -15.81197,6.87363 -28.25727,7.38093 -16.44989,0.67194 -25.22626,-1.84699 -33.76527,-9.68824 l -4.06879,-3.73564 -2.20198,3.1346 c -1.21106,1.72397 -3.8681,4.07021 -5.90408,5.21402 -8.22725,4.62194 -21.13465,1.4042 -24.59105,-6.13025 l -1.11796,-2.4376 2.87172,0.54764 c 5.65435,1.07745 9.69062,-2.89197 12.09739,-11.89663 0.9571,-3.58202 1.16874,-11.65725 1.40917,-53.87677 l 0.28422,-49.663135 -6.66539,-3.085431 C 351.21766,33.639171 334.74345,17.708572 329.95994,-2.2875024 c -1.68164,-7.0290486 -1.53751,-19.3195736 0.32902,-28.1858996 6.1653,-29.265311 30.22897,-51.985191 64.78451,-61.166884 11.1819,-2.971199 18.17112,-3.768565 33.03068,-3.768565 21.33841,0 34.52895,2.567421 55.67589,10.836455 16.32733,6.384534 22.03748,6.212349 28.99517,-0.87296 3.74944,-3.818563 6.23023,-8.121615 8.22114,-14.261234 l 1.52515,-4.70218 2.20541,2.09202 c 5.67062,5.379684 5.94225,19.904131 0.53569,28.698765 -2.0822,3.387641 -6.29214,6.87076 -9.3496,7.736125 -1.95669,0.551738 -1.95205,0.561444 1.26077,2.402377 9.21417,5.279153 14.38304,20.294305 12.60742,36.62317 -0.88678,8.152567 -3.53286,14.546564 -7.81878,18.8907291 -3.01041,3.0512018 -7.50436,5.3039631 -10.58074,5.3039631 -0.48008,0 -0.59929,-2.5896218 -0.34272,-7.4600102 1.42682,-26.961061 -12.18584,-49.698317 -36.29901,-60.630161 -7.18566,-3.257612 -18.52141,-6.428722 -27.80248,-7.777659 -10.5837,-1.538423 -28.53168,-1.361503 -35.60284,0.351837 -11.81779,2.861636 -23.61362,8.344548 -32.38016,15.050135 -5.50291,4.209282 -12.7119,13.145061 -14.84733,18.403133 -5.03054,12.387778 -1.52543,29.529937 8.51308,41.6330502 4.13921,4.9905034 13.5588,13.3342988 15.05332,13.3342988 0.82122,0 0.75497,-27.834227 -0.0921,-36.074545 -0.94586,-9.266956 -2.07414,-12.93541 -5.07647,-16.493292 -2.19738,-2.604184 -3.05731,-3.079788 -5.57099,-3.079788 -3.73377,0 -3.87471,-1.348188 -0.53569,-5.114019 4.50344,-5.07651 13.51989,-6.874833 19.38115,-3.865365 2.59953,1.334498 8.21123,7.315786 8.23782,8.78023 0.004,0.331508 0.28546,1.091861 0.62331,1.691313 0.47117,0.837109 1.67029,0.124056 5.17551,-3.073149 5.54117,-5.053274 14.63726,-10.240984 19.86277,-11.327614 2.11958,-0.438181 6.98644,-0.802801 10.8157,-0.802801 22.78677,0 40.53448,10.245715 48.9591,28.263486 4.39689,9.404373 5.72857,16.429065 5.64854,29.8034426 -0.0697,9.0707897 -0.39873,13.0791324 -1.54021,17.8669964 -2.61481,10.977645 -7.50183,19.537772 -14.42392,25.266056 l -3.71019,3.070494 8.39931,3.502617 c 42.71827,17.813848 62.5522,42.816107 62.53635,78.832515 -0.0166,21.37157 -6.73297,40.66363 -19.45972,55.83605 -21.4204,25.53656 -57.83231,38.05433 -99.61132,34.24357 -18.2134,-1.66153 -32.5852,-5.1112 -50.97224,-12.23552 -24.70441,-9.57198 -25.36858,-9.78305 -32.06554,-10.20277 -5.5958,-0.34975 -6.95275,-0.16512 -10.17788,1.40018 -6.14364,2.97946 -11.69219,11.26347 -13.37599,19.96948 -0.58933,3.04265 -1.61058,3.27355 -4.22493,0.9561 z m 42.9887,-31.36136 c -10.76857,-7.69891 -21.05752,-25.89492 -23.46069,-41.49074 -0.8354,-5.43175 -0.61762,-18.57498 0.36678,-21.85725 0.26555,-0.88756 -0.0166,-0.59099 -0.68426,0.66219 -0.64127,1.2504 -1.65576,4.87964 -2.25246,8.06478 -3.7721,20.12689 8.28346,46.72399 25.14793,55.48178 4.25807,2.21102 4.64837,1.83139 0.88486,-0.86076 z m 88.50742,-21.3587 c 7.37362,-4.06672 13.17866,-13.69962 16.16888,-26.83041 2.23521,-9.81462 3.22628,-25.32003 2.27454,-35.58338 -0.81188,-8.757327 -3.74513,-21.076487 -5.36234,-22.522716 -1.18671,-1.061903 -12.61735,-5.866608 -26.49745,-11.138788 l -11.30036,-4.29243 0.21119,45.319144 c 0.20663,44.1952 0.24935,45.40896 1.72438,48.94801 2.82446,6.77811 6.63215,9.03365 14.40857,8.53605 2.98635,-0.1921 5.77094,-1.00058 8.37163,-2.43548 z m 24.70963,-7.81028 c 10.32247,-13.91851 14.86707,-29.22124 14.12494,-47.55986 -0.4559,-11.280062 -1.84334,-16.754678 -4.70485,-18.571999 l -2.05743,-1.306406 1.47209,4.93573 c 2.20135,7.381265 2.18538,27.280245 -0.0166,36.388585 -2.93927,12.08602 -7.86771,22.20784 -15.29959,31.42086 l -3.87727,4.80617 3.50515,-2.79048 c 1.92798,-1.53452 5.0178,-4.82956 6.86674,-7.3226 z M 406.42112,66.292258 c 0.10165,-63.9078623 -0.64459,-102.356403 -1.77238,-91.819385 -0.79583,7.438102 -2.0654,61.55245 -2.0532,87.531058 0.0124,25.645283 1.09075,72.491179 1.9096,82.920569 l 0.53734,6.85521 0.64053,-10.48457 c 0.35225,-5.76617 0.68281,-39.51771 0.73895,-75.002882 z M 528.40653,131.54465 C 528.61647,111.37489 520.62709,95.122124 503.529,80.934828 489.90572,69.630947 469.12198,59.432357 432.05341,45.860531 l -8.80438,-3.222846 0.21991,2.446686 c 0.22031,2.44594 0.2228,2.448056 19.53478,9.883876 40.60243,15.634727 56.13253,24.474792 69.49686,39.559322 5.54357,6.257121 7.04283,8.546061 9.81222,14.979511 3.92644,9.12212 5.82044,19.53802 5.26683,28.96555 -0.20994,3.55332 -0.12945,5.05054 0.19376,3.62916 0.3037,-1.3306 0.58871,-6.0812 0.63223,-10.55714 z M 468.6753,39.237176 c 2.82977,-3.791224 7.43723,-14.987275 9.11178,-22.140837 2.15439,-9.2042221 2.15987,-25.615777 0.0166,-34.678933 -3.30102,-13.926863 -9.89533,-24.52288 -18.01685,-28.950359 -2.14614,-1.169364 -3.09697,-1.507759 -2.11348,-0.750312 4.38121,3.366944 10.61518,11.456735 12.79268,16.5993 3.95951,9.354044 5.25438,16.499764 5.29674,29.2330744 0.0697,15.8633846 -2.55606,27.5086516 -8.53976,38.1219696 -1.3174,2.33736 -2.3959,4.424325 -2.3959,4.637337 0,1.255747 2.28832,0.07634 3.85292,-2.069498 z m -12.86944,-6.61593 c 3.04473,-7.085517 4.11111,-13.152612 4.52556,-25.7439834 0.99677,-30.2854766 -5.27703,-48.5375036 -18.13302,-52.7509336 -7.60648,-2.492824 -14.22801,-0.270931 -17.00939,5.709614 -1.43886,3.092817 -1.50956,4.544938 -1.7168,35.2079774 l -0.21492,31.9823506 7.01225,2.429095 c 3.85686,1.336114 10.07087,3.513113 13.8087,4.838191 9.51087,3.370511 9.56589,3.36296 11.72928,-1.672311 z m -67.53175,-2.419469 c -0.002,-1.512863 -1.49834,-2.666586 -8.99511,-6.93748 -23.01433,-13.111536 -32.56973,-26.9161274 -32.73943,-47.298684 -0.0767,-8.714886 -0.95702,-6.963785 -1.10007,2.178327 -0.19086,12.23277 3.64567,22.4642117 12.03677,32.093544 2.97291,3.411463 7.49763,7.788032 10.05502,9.725674 5.26148,3.986436 18.49487,12.009718 19.85178,12.03594 0.49112,0.06348 0.89324,-0.801925 0.89233,-1.797321 z m 133.48674,-53.984774 c 1.76509,-16.929024 -9.60974,-37.510897 -23.31547,-42.189143 -1.07671,-0.36678 -0.0763,0.822134 2.52312,2.988756 12.30168,10.268156 18.69418,25.141792 18.0903,42.091477 l -0.28753,8.066598 1.26429,-3.268735 c 0.69463,-1.797653 1.47184,-5.257866 1.72501,-7.688953 z"
       id="path7643"
       inkscape:connector-curvature="0" />
    <path
       style="fill:#800000"
       d="m 804.34796,254.78132 c 10.60057,-2.2586 12.50847,-3.86005 8.36434,-7.02083 -2.39657,-1.82802 -2.48839,-2.49141 -0.59154,-4.27351 1.33239,-1.25163 1.75098,-1.31806 6.28526,-0.99809 5.54128,0.39125 6.13522,0.0692 7.24135,-3.91901 0.35184,-1.26911 1.02502,-2.81131 1.49577,-3.4271 0.47079,-0.61593 0.85594,-1.54839 0.85594,-2.07228 0,-0.52382 1.49253,-2.37458 3.31687,-4.11257 1.82437,-1.73816 5.48013,-5.8026 8.12398,-9.03232 2.64376,-3.22958 5.04174,-5.8721 5.32869,-5.8721 0.2867,0 1.17393,-1.0332 1.97104,-2.296 1.0914,-1.72881 1.44938,-3.07518 1.44938,-5.4507 0,-2.88968 -0.15766,-3.27156 -1.87478,-4.5442 -1.03112,-0.76412 -2.6536,-1.78695 -3.60539,-2.27276 -0.95178,-0.48593 -2.7667,-1.43544 -4.03307,-2.11007 -1.26641,-0.67459 -5.25418,-4.09643 -8.86172,-7.60411 -3.60759,-3.50772 -8.23584,-7.69534 -10.28525,-9.30591 -4.53893,-3.56701 -4.54137,-3.3218 0.12032,-11.69945 3.26023,-5.85895 3.01655,-5.15734 5.00942,-14.4214 0.40951,-1.90361 0.73259,-6.70587 0.71795,-10.67181 -0.029,-8.41097 -0.86321,-11.57793 -5.36474,-20.41812 -2.3294,-4.5744 -2.67875,-5.64339 -2.02266,-6.18796 0.61302,-0.50866 1.64264,-0.24022 4.53311,1.18298 2.05697,1.01265 4.4956,2.47693 5.41902,3.25401 3.06597,2.57978 8.73649,4.28653 14.24186,4.28653 5.33209,0 6.18156,-0.28213 9.91246,-3.29811 3.05315,-2.46764 4.16945,-5.04079 4.16945,-9.61124 0,-4.38039 0.73334,-7.04685 2.43785,-8.86309 0.72143,-0.76881 4.03726,-2.73903 7.3686,-4.378311 4.38218,-2.156335 6.93898,-3.857819 9.24651,-6.153149 3.11791,-3.101573 6.96312,-9.364462 6.21114,-10.116427 -0.20828,-0.208286 -1.54651,0.425319 -2.97435,1.40793 -1.42786,0.982374 -2.88567,1.786122 -3.2395,1.786122 -0.3539,0 -1.34536,0.712965 -2.20346,1.584514 -0.8581,0.871421 -2.07933,1.869015 -2.71389,2.216877 -0.63455,0.348098 -2.0968,1.17106 -3.24956,1.829136 -4.79455,2.737042 -6.11651,1.399103 -1.66642,-1.686453 4.54224,-3.149538 17.89529,-17.430517 17.89529,-19.138886 0,-0.989831 -1.73711,-0.105795 -4.80343,2.444987 -1.84876,1.537762 -3.92544,3.053272 -4.61484,3.368062 -0.68945,0.314919 -2.48631,1.144677 -3.99308,1.844455 -1.50672,0.699738 -3.32375,1.189318 -4.03784,1.088001 -1.13887,-0.161809 -1.27442,-0.467722 -1.10348,-2.491868 0.28504,-3.379267 2.38865,-5.856113 5.40595,-6.365863 3.87777,-0.655136 10.51224,-4.092617 12.81197,-6.638092 2.23796,-2.47722 2.65672,-3.763338 1.05573,-3.242679 -5.26932,1.713804 -9.35936,2.64692 -12.2239,2.788943 -3.68148,0.182976 -5.01754,-0.414075 -3.27732,-1.464033 4.05448,-2.445519 9.45732,-6.17094 10.28372,-7.091072 1.41801,-1.578791 2.94935,-7.754964 2.11576,-8.532992 -0.45618,-0.425774 -0.73152,-0.375073 -0.9308,0.1726 -1.1711,3.214881 -6.77159,6.973743 -10.42669,6.99789 -1.05199,0.0166 -2.41843,0.282964 -3.03659,0.61414 -1.41761,0.758735 -5.14572,0.09916 -5.14572,-0.910215 0,-0.416315 0.7896,-1.361009 1.75475,-2.098998 0.96511,-0.737947 3.5468,-2.834373 5.73716,-4.658663 2.19036,-1.824373 4.20252,-3.316988 4.47141,-3.316988 0.26887,0 1.71082,-1.294542 3.2041,-2.876694 3.20091,-3.391463 3.42902,-5.011745 1.3328,-9.470009 -0.76023,-1.616922 -1.79803,-3.848481 -2.3062,-4.958971 -0.50813,-1.110406 -1.44076,-2.797736 -2.07249,-3.749526 -0.63169,-0.951871 -1.30898,-2.055017 -1.50514,-2.451624 -0.87251,-1.764999 -1.25326,-0.488175 -0.49523,1.660652 1.13667,3.221562 0.30039,8.494862 -1.83695,11.57855 -2.8908,4.171318 -8.9213,8.40458 -13.76438,9.662111 -3.34197,0.867771 -10.51034,0.729525 -13.79194,-0.265953 -4.38948,-1.331592 -13.93952,-1.150694 -17.92239,0.339806 -2.7294,1.021203 -3.52531,1.682517 -5.38047,4.470587 -3.01606,4.532781 -3.46934,5.773924 -3.86877,10.595099 -0.74748,9.019342 1.95461,15.422637 12.97595,30.749598 1.59705,2.220852 3.17978,4.686956 3.51734,5.480081 0.81106,1.905992 1.71136,6.720605 1.42831,7.637835 -0.12323,0.39956 -0.37963,1.43731 -0.57012,2.306 -0.43001,1.96362 -3.60294,3.69986 -7.2497,3.96714 -4.52622,0.33192 -9.02457,-0.43042 -17.59407,-2.98112 -1.9037,-0.5666 -6.57618,-1.45109 -10.38338,-1.96565 -12.88864,-1.74169 -15.37757,-2.21895 -16.55876,-3.17547 -1.12136,-0.907973 -1.13306,-1.042155 -0.24106,-2.76599 2.20862,-4.271016 0.53141,-8.352715 -4.42955,-10.779947 -2.79156,-1.365775 -3.5646,-1.49826 -6.68265,-1.145505 l -3.52597,0.398718 0,-4.02315 c 0,-3.288741 0.20994,-4.213394 1.15223,-5.065848 1.09509,-0.991083 1.27384,-0.99424 3.6053,-0.06392 l 2.4532,0.97838 1.15364,-1.594684 c 1.55341,-2.147162 3.72949,-4.320886 5.48013,-5.473985 1.2438,-0.819184 1.3418,-1.096139 0.71277,-2.013158 -2.62772,-3.830389 -3.00254,-4.765537 -3.3586,-8.379928 -0.35973,-3.646177 -0.4722,-3.895244 -1.63265,-3.604022 -2.56025,0.64256 -4.22961,-0.632646 -5.30836,-4.054979 -0.88375,-2.803462 -0.91702,-3.576054 -0.26389,-6.124267 0.86139,-3.361343 0.39666,-9.709991 -0.89374,-12.208084 -0.44913,-0.869431 -1.39523,-1.934239 -2.10261,-2.36603 -5.72351,-3.49519 -7.20251,-4.128955 -9.63547,-4.128955 -3.5349,0 -3.76778,-1.392998 -0.70633,-4.224342 2.96834,-2.745251 3.94988,-5.800436 2.99843,-9.333631 -0.69783,-2.591529 -2.6573,-4.8810514 -7.20958,-8.4239552 l -2.30246,-1.7918854 1.20504,-3.3750338 1.20496,-3.3750337 3.49931,-0.1269606 c 3.26375,-0.1186625 3.52274,-0.03319 3.84793,1.2621788 0.1921,0.7639621 1.25351,2.294002 2.35939,3.3998865 1.47275,1.4727001 2.01299,2.5175519 2.01926,3.9047828 0.0166,1.0416985 0.38378,2.5429857 0.84242,3.3361159 0.45876,0.7931707 1.15335,2.0910727 1.54373,2.8843267 0.39042,0.793171 1.1763,1.974693 1.74654,2.625718 0.90004,1.027425 0.94258,1.43457 0.32238,3.088874 -0.67729,1.807114 -0.62165,1.984028 1.07953,3.431253 0.98648,0.839309 2.10382,2.11937 2.48299,2.844621 0.38213,0.73131 1.44042,1.468801 2.37562,1.65584 0.92752,0.185461 1.98353,0.695337 2.3467,1.133019 0.79607,0.959298 3.60028,1.042901 5.02988,0.15061 0.81187,-0.507012 1.54875,-0.382956 3.43038,0.57684 4.40565,2.247657 7.03767,1.261059 8.98386,-3.367566 0.64771,-1.540412 1.33425,-2.124348 3.05962,-2.602067 5.60158,-1.550827 5.57411,-10.398896 -0.0489,-15.8493615 -2.44822,-2.3728757 -6.50565,-3.1505716 -10.11294,-1.9384298 -4.45873,1.4982996 -4.75061,2.1543868 -3.14377,7.0669703 1.08198,3.307986 0.90872,5.735379 -0.47113,6.599251 -1.80358,1.129284 -3.61833,-1.611071 -6.13518,-9.2648403 -2.9059,-8.8366603 -5.08805,-13.0392188 -8.89283,-17.1266417 -4.88413,-5.247038 -9.09034,-6.026684 -15.77481,-2.924159 -2.04439,0.948844 -3.35815,2.044605 -4.23679,3.533735 -1.54473,2.6182079 -2.35744,7.2578675 -1.68305,9.6090437 0.70824,2.4695902 -0.2058,3.2586951 -3.77367,3.2586951 -6.87973,0 -11.01528,2.4256094 -13.9248,8.1672122 -0.7676,1.514938 -2.57659,4.08398 -4.01996,5.709033 -2.99958,3.377357 -2.8352,4.208451 0.95204,4.814044 1.28932,0.205792 3.63,1.02643 5.20156,1.822755 2.92433,1.481953 7.43073,5.174803 7.43073,6.089458 0,0.280475 -1.02461,1.534397 -2.277,2.7867 -2.7374,2.737493 -3.62381,5.546557 -3.74293,11.862511 -0.0959,5.097755 -0.4266,6.050457 -2.09738,6.050457 -0.79541,0 -1.54273,-0.890882 -2.54041,-3.028465 -0.77748,-1.66559 -2.07211,-4.192602 -2.87703,-5.61543 -0.80495,-1.42283 -1.46349,-3.146921 -1.46349,-3.831387 0,-0.684384 1.16816,-2.543733 2.59589,-4.131694 1.42765,-1.587878 2.59581,-3.132481 2.59581,-3.432165 0,-0.584309 -3.75239,-1.869432 -5.5471,-1.89972 -0.59771,-0.0166 -1.54095,-0.363041 -2.09609,-0.7845 -0.94361,-0.716331 -3.89391,-4.709654 -3.89391,-5.270562 -13.10574,-34.560354 -36.36868,-63.229907 -47.17999,-95.32573 0.34604,-1.696168 8.92271,-4.036889 16.64519,-4.542447 4.758,-0.311594 6.10983,-0.180904 9.80654,0.948592 4.85989,1.484648 5.46922,1.865611 6.65634,4.161484 0.76011,1.469714 0.74915,1.815949 -0.10414,3.260018 -0.86578,1.465769 -0.87216,1.774543 -0.0681,3.328777 1.23217,2.38262 4.8013,4.109868 16.55175,8.009676 9.37612,3.111811 12.44889,4.309848 16.1519,6.297608 0.79322,0.425776 2.35076,1.08788 3.46114,1.471333 1.11049,0.383371 3.67956,1.321634 5.70907,2.084933 4.86118,1.828397 11.71633,1.938803 15.04171,0.242304 1.23484,-0.630031 2.39794,-1.392459 2.58439,-1.694343 0.43627,-0.705834 7.22181,-3.917434 9.35513,-4.427766 0.89797,-0.214923 1.89225,-0.573813 2.20956,-0.797692 0.31699,-0.223633 2.13435,-0.826039 4.03797,-1.3379 3.90059,-1.048883 9.57332,-0.644474 13.04113,0.929585 1.07647,0.488682 2.86574,1.068837 3.9761,1.289362 1.11045,0.220723 2.78442,0.792297 3.7199,1.27081 2.09689,1.072313 8.58286,0.673462 11.21962,-0.690033 3.60846,-1.865986 11.79015,-4.933699 13.15863,-4.933699 0.88449,0 1.32254,-0.270937 1.16459,-0.720984 -0.33234,-0.946678 -3.07559,-0.700814 -8.4959,0.761355 -7.29114,1.966721 -9.48275,2.245579 -11.61518,1.477635 -3.33683,-1.201726 -6.51976,-3.070365 -9.84866,-5.782137 -4.42627,-3.605593 -7.20422,-4.635844 -11.22554,-4.163269 -1.76264,0.207033 -4.53863,0.976555 -6.1688,1.709691 -1.63007,0.733136 -5.87017,2.299768 -9.42229,3.481294 -5.62584,1.871302 -6.96441,2.113024 -10.38342,1.874695 -2.15874,-0.151018 -4.98046,-0.545051 -6.27035,-0.877062 -3.60863,-0.92859 -10.28186,-3.915737 -10.55084,-4.7228 -0.15019,-0.45055 0.0917,-0.593815 0.64513,-0.381713 2.66178,1.021453 8.37562,1.664803 12.61705,1.420713 10.05624,-0.578665 14.03337,-1.982907 20.67333,-7.298821 2.50593,-2.006184 2.7211,-2.065434 7.49918,-2.065434 4.60796,0 5.2111,0.147704 9.53403,2.340721 2.53817,1.287528 5.78296,2.658204 7.21069,3.046102 3.87308,1.052108 11.72215,1.653183 15.14971,1.159984 5.38034,-0.774128 12.68369,-2.172353 13.00014,-2.488879 0.87781,-0.877734 -1.32405,-1.173645 -8.73381,-1.173645 -4.492,0 -8.68651,-0.217409 -9.32106,-0.483484 -3.51203,-1.471618 -8.89882,-4.886196 -15.28671,-9.689954 -0.79313,-0.59642 -2.86985,-1.766031 -4.61481,-2.599122 -2.70264,-1.290221 -3.94755,-1.514603 -8.40234,-1.514682 -5.72132,-1.28e-4 -6.95855,0.414489 -10.05706,3.370509 -1.11049,1.059288 -3.1228,2.315243 -4.47187,2.790807 -9.80919,3.458766 -30.61408,3.281639 -42.25345,-0.359718 -11.72788,-3.668916 -16.12661,-6.869566 -17.00615,-12.374089 -0.52822,-3.305124 -2.00362,-4.40939 -9.24083,-6.916654 -4.30334,-1.490828 -15.35533,-1.201519 -28.09714,0.735464 -8.01719,1.21878 -10.39372,1.404241 -11.04711,0.861912 -0.45797,-0.380046 -1.77844,-2.605218 -2.93449,-4.944894 -2.08655,-4.22294 -3.48017,-5.99992 -4.167,-5.31318 -0.54216,0.54224 2.03673,6.92645 8.23758,20.392926 0.75778,1.645717 1.37781,3.128461 1.37781,3.294876 0,0.16679 1.16028,2.785787 2.57834,5.820812 1.41818,3.034976 2.9715,6.676007 3.45196,8.091158 13.4703,31.967 27.53973,62.5229111 38.92584,90.694704 0.3062,0.558999 1.38233,2.81122 2.39134,5.004816 1.82292,3.963119 1.82986,4.013654 1.08916,7.939098 -0.93693,4.965609 -1.93992,5.988886 -3.65583,3.729777 -2.60967,-3.435568 -7.49707,-8.446608 -8.23829,-8.446608 -0.42756,0 -0.77748,-0.288773 -0.77748,-0.642312 0,-0.432538 0.83133,-0.517718 2.54468,-0.260975 3.34989,0.502241 3.71704,-0.314082 1.0551,-2.345949 -6.86267,-5.238034 -13.00404,-6.670986 -21.05097,-4.911961 -3.53182,0.77197 -5.24197,0.665382 -4.30798,-0.268443 0.71347,-0.713509 8.27517,-2.497512 10.65468,-2.513859 2.804,-0.02074 3.18513,-0.745043 0.86528,-1.647997 -2.94183,-1.145135 -13.31866,-2.983697 -16.83973,-2.983697 -4.12656,0 -4.78181,-1.177165 -1.43395,-2.575971 2.51913,-1.052486 2.10053,-2.038796 -0.86516,-2.038796 -1.20883,0 -4.43831,-0.390838 -7.17659,-0.868268 -6.53295,-1.1392424 -9.18755,-0.5920678 -11.74846,2.421668 -1.02638,1.207868 -1.87005,2.594351 -1.87478,3.081158 -0.0166,1.045225 -5.78442,6.902545 -6.80475,6.902545 -0.89673,0 -0.90913,0.07095 0.45075,-2.595845 1.70044,-3.335328 1.57095,-4.28218 -0.44046,-3.221229 -2.34856,1.238777 -5.36827,2.391546 -7.1568,2.731891 -2.57452,0.490043 -5.0446,1.747492 -6.96834,3.547344 -1.36732,1.279355 -1.58634,1.933078 -1.58634,4.735253 l 0,3.250978 -2.5149,1.255872 c -1.38309,0.690773 -2.92533,1.256037 -3.42703,1.256037 -2.28258,0 -1.50937,1.552695 2.89872,5.821058 5.78041,5.597215 7.17585,8.313134 7.66722,14.922217 0.30164,4.060989 0.68584,5.48835 2.18447,8.122941 0.99996,1.757903 2.49341,5.002663 3.31881,7.210692 3.75945,10.057227 4.45918,12.729289 4.8126,18.376338 0.29582,4.724712 0.54264,5.818691 1.43311,6.345406 0.59173,0.35018 2.01705,1.273344 3.1675,2.051871 1.59916,1.082064 2.75944,1.391912 4.92873,1.316152 1.56033,-0.05435 2.29823,-0.35018 2.54265,-0.757824 0.64211,-1.070987 0.50689,-2.183302 -1.26836,-2.73434 -4.25882,-1.321882 -3.97349,-8.180697 0.48577,-8.180697 1.25184,0 3.82952,1.739863 3.46105,2.336115 -0.16307,0.263471 -1.09319,0.201233 -2.06718,-0.138157 -1.5251,-0.531617 -1.94288,-0.445569 -3.00777,0.619323 -1.08762,1.659496 1.14717,3.816531 1.14717,3.816531 0.62307,0.316989 1.94399,1.501001 2.93536,2.630448 1.7114,1.949923 1.80695,2.314336 1.88969,7.210783 0.15143,8.96387 0.0705,10.78298 -0.5042,11.35783 -0.65679,0.65679 -7.12754,1.16467 -15.66203,1.22931 -4.96109,0.0374 -6.5266,-0.16969 -8.65286,-1.14401 -6.94229,-3.18219 -10.2884,-3.04751 -12.74779,-0.74501 -1.39001,1.19473 -2.10036,3.00897 -2.6831,4.71335 -0.60219,2.37134 -1.17795,6.47628 -0.12157,11.19124 0.6388,2.85052 0.21949,19.08773 -0.54518,21.09815 -0.99294,2.61181 -0.25849,5.65472 1.89852,7.86404 1.12016,1.14733 3.15069,4.20479 4.51241,6.79442 2.41594,4.59451 4.20786,6.49146 10.42047,11.03109 2.73131,1.99584 3.48382,1.51676 4.34583,-2.76642 0.85731,-4.25998 0.49025,-8.19149 -0.87047,-9.32056 -0.53896,-0.44727 -2.06241,-0.71874 -3.64638,-0.64991 -3.70098,0.16098 -4.74957,-0.71525 -4.6775,-3.90918 0.0714,-3.17613 0.044,-5.6375 -0.17799,-15.82223 -0.18008,-8.27152 0.3452,-14.34981 1.48294,-17.16144 0.75363,-1.86243 0.51785,-1.83562 4.5081,-0.51195 4.11094,1.36357 4.54166,2.45627 0.79354,2.01348 -2.25844,-0.26678 -2.87939,0.99573 -3.49029,2.03369 -1.0105,1.55385 -1.25529,5.01146 -0.7799,6.61344 0.20289,0.68434 0.89519,3.19111 3.19729,5.57066 4.44901,4.59858 7.88089,9.81098 8.8811,13.48856 0.72127,2.65199 2.70148,5.71788 6.75035,10.45093 1.62842,1.90366 3.2575,4.02257 3.62024,4.70886 0.36305,0.68621 1.89554,1.71675 3.40616,2.29011 1.51058,0.57327 4.1743,1.7352 5.91931,2.58186 4.4744,2.17107 4.86786,1.716 4.41934,-5.11173 -0.34686,-5.27468 -0.82628,-6.94782 -2.56381,-8.93969 -1.14829,-1.31645 -6.56618,-1.41893 -7.62402,-0.14439 -1.81371,2.18538 -2.88433,0.65833 -2.88433,-4.11376 0,-3.9208 -1.23903,-6.41159 -3.70106,-7.44027 -1.75418,-0.73293 -2.01013,-1.2011 -3.47084,-6.34814 -0.86723,-3.05623 -1.47054,-5.66319 -1.34039,-5.79331 0.12986,-0.12944 2.31051,0.52058 4.84549,1.44565 6.22282,2.27107 11.51371,2.94308 17.76539,2.256 4.81798,-0.52933 5.10468,-0.49556 6.85769,0.80981 1.00623,0.74923 3.84554,2.38694 6.30953,3.63928 5.82043,2.95839 7.27114,3.76256 9.36454,5.19065 0.95175,0.64942 2.44444,1.4869 3.31691,1.86127 2.04182,0.87594 2.01087,2.23483 -0.10996,4.80707 -0.9327,1.13157 -2.37901,3.55091 -3.21393,5.37648 -2.21964,4.85252 -1.27055,6.27406 2.34679,3.51503 2.63273,-2.00822 7.1514,-4.34051 8.4091,-4.34051 1.93544,0 6.51801,1.2657 9.4405,2.6075 4.81335,2.20978 7.40463,3.04402 12.3972,3.99108 2.62709,0.4983 6.23389,1.5346 8.01519,2.30288 3.81484,1.6453 10.13598,4.06506 12.17996,4.66273 0.79317,0.23193 1.70177,0.62402 2.01905,0.87146 0.3174,0.2477 1.64646,0.73579 2.95374,1.08522 1.77753,0.47515 3.68434,1.90761 7.5617,5.68074 4.86254,4.73173 8.37815,7.95661 17.46205,16.0179 2.06224,1.8301 4.13895,3.78881 4.61485,4.35284 0.47593,0.56385 1.90358,1.29864 3.17264,1.63269 4.71816,1.24209 6.09439,3.56629 3.83172,6.47103 -0.58938,0.75666 -1.42109,2.35155 -1.84836,3.5442 -0.53825,1.50265 -2.17202,3.36262 -5.3201,6.05701 -2.49888,2.1387 -4.84698,3.99104 -5.21811,4.1163 -0.37134,0.12571 -2.28048,1.49718 -4.24302,3.04867 -3.3096,2.61634 -4.68754,4.35247 -9.0307,11.37827 -0.90134,1.45801 -2.25409,3.30359 -3.00611,4.10132 -0.75205,0.79765 -1.77338,2.61469 -2.26953,4.03792 -0.49621,1.42325 -1.29856,3.43416 -1.78312,4.46885 -1.539,3.28658 -0.44444,3.6026 7.54369,2.17771 11.66249,-2.08029 12.45811,-2.43728 11.98989,-5.38023 -0.23733,-1.49253 -0.78646,-2.1453 -2.56871,-3.05456 -1.24667,-0.63596 -2.42711,-1.57439 -2.62319,-2.08543 -0.52427,-1.36607 1.88648,-3.05564 4.37039,-3.06298 2.88757,-0.0166 7.5795,-4.20999 7.5795,-6.78716 0,-1.20538 0.43548,-2.0122 1.44208,-2.67182 0.79317,-0.51962 1.1643,-1.40872 1.44217,-1.76205 0.64177,-0.81612 1.73073,-2.19559 3.84594,-3.88039 2.1153,-1.68483 5.42706,-4.53677 7.35957,-6.33756 1.93244,-1.80094 5.06899,-4.09179 6.97008,-5.091 5.39076,-2.83321 5.65606,-3.18808 5.30409,-7.09552 -0.22405,-2.48925 -0.64737,-3.68476 -1.65136,-4.66559 -0.74242,-0.72534 -2.07485,-2.26927 -2.96087,-3.43129 -0.88607,-1.1619 -2.05349,-1.85662 -2.41238,-2.11244 -1.98776,-1.41703 -3.37976,-3.26011 -2.91785,-4.00739 0.41241,-0.66779 8.80471,2.77073 11.02524,4.51738 1.50622,0.90271 3.15356,1.86014 4.51431,2.55394 0.98179,0.73339 3.86168,2.19994 6.39989,3.25899 2.53818,1.05909 5.43284,2.27612 6.43258,2.70455 2.4652,0.71783 4.98279,1.70364 7.19469,2.58358 3.17932,0.81482 5.1555,2.78939 4.1146,4.11111 -0.31118,0.39499 -0.73148,1.4137 -0.93437,2.26388 -0.52884,2.21691 -21.09532,22.54084 -26.2824,25.97234 -4.2704,2.82513 -6.10892,4.37359 -7.05232,5.93968 -2.28828,3.79799 -3.95906,7.51196 -3.69211,8.20738 0.40163,1.0465 3.67605,0.84793 10.70119,-0.64883 z m -29.20279,-78.02325 c -3.83039,-2.0841 -6.29915,-4.50748 -8.43092,-8.27621 -3.25277,-5.7506 -11.78551,-14.96362 -13.10399,-14.1488 -0.76362,0.47196 -0.7816,5.16746 -0.029,7.7887 0.75367,2.62809 0.87855,9.17759 0.18836,9.86803 -0.70766,0.70766 -8.49718,-7.502 -13.45163,-14.17709 -7.57299,-10.20298 -8.44818,-10.58129 -7.42677,-3.21028 0.58899,4.24999 -0.12987,11.18286 -1.2297,11.86268 -0.24562,0.15226 -0.90871,-0.43536 -1.47299,-1.30512 -0.56419,-0.86972 -2.50257,-3.2687 -4.30757,-5.33094 -5.16464,-5.90079 -7.06672,-9.88142 -8.07664,-16.90283 -0.45544,-3.16585 -0.38503,-3.48935 1.30093,-5.98757 1.64008,-2.43017 1.80139,-3.10687 2.02129,-8.47884 0.30994,-7.58365 0.29292,-7.53698 2.45221,-6.42017 0.9575,0.49518 1.74093,1.15961 1.74093,1.47656 0,0.31698 0.71384,0.84536 1.58634,1.17421 0.8725,0.32902 2.34006,0.9715 3.26135,1.42789 2.35363,1.16625 4.07561,1.03718 6.86687,-0.51444 1.3301,-0.7394 3.70119,-1.83204 5.26911,-2.4281 3.69032,-1.40274 8.14082,-4.47017 10.78388,-7.43275 l 2.0975,-2.35092 4.24791,1.04646 c 2.33641,0.57543 4.76716,1.27766 5.40168,1.56042 7.60949,3.39093 9.02929,3.18679 13.02885,-1.873 2.15069,-2.72082 2.33192,-3.21547 2.1587,-5.89006 -0.18256,-2.81126 -0.13651,-2.91379 1.24404,-2.75832 2.14061,0.24065 5.32828,1.99063 6.01199,3.29965 0.33151,0.63463 1.58929,2.74006 2.79521,4.67882 2.85101,4.58328 4.19343,8.50498 5.32206,15.54719 0.50535,3.15293 1.19264,6.77093 1.52738,8.03997 0.98602,3.73806 5.82753,14.5239 8.67455,19.32467 0.6585,1.11045 2.11062,3.70625 3.22692,5.76861 1.11634,2.06219 2.4805,4.26869 3.03162,4.90321 1.33686,1.53934 2.45242,3.75131 1.88752,3.74264 -0.24853,-0.0166 -1.54025,-0.62866 -2.8691,-1.38844 -1.32877,-0.7599 -3.15521,-1.54394 -4.05859,-1.74234 -2.03303,-0.44656 -5.49112,-3.59083 -8.79276,-7.99486 -3.01059,-4.01581 -4.3979,-4.92587 -5.63041,-3.69335 -0.76454,0.76454 -0.73309,1.21048 0.2784,3.95013 0.62717,1.69853 1.32313,4.75911 1.54676,6.80119 0.44138,4.03161 1.266,6.06568 3.1502,7.77081 1.47473,1.33462 1.57592,2.16728 0.20289,1.67197 -2.83815,-1.02406 -8.1105,-5.2411 -14.84256,-11.87159 -4.1182,-4.05606 -7.87189,-7.3006 -8.34155,-7.21015 -1.12386,0.21658 -1.75368,3.47631 -1.36736,7.07696 0.30993,2.88313 2.81777,9.04399 4.84268,11.89347 0.58903,0.82901 0.90564,1.67264 0.7035,1.87478 -0.48547,0.48553 -0.23068,0.57211 -3.4196,-1.16285 z m -83.35742,-16.20792 c 1.25376,-2.32587 7.5846,-6.48963 9.86699,-6.48963 0.6731,0 1.96594,-0.38379 2.873,-0.85279 1.86947,-0.96677 2.1387,-2.02839 2.63758,-10.39596 0.32487,-5.44266 2.80737,-19.32758 3.78169,-21.14814 0.76047,-1.42103 4.02303,-1.39668 5.79911,0.0436 1.2657,1.02614 1.35979,1.49813 1.33241,6.68567 l -0.0249,5.58162 -3.24529,2.99635 c -1.97383,1.82251 -3.39342,3.66655 -3.62357,4.70716 -0.20827,0.94092 -0.61642,2.46342 -0.90743,3.3833 -0.29085,0.91984 -0.52921,3.17131 -0.52921,5.00324 0,2.71127 0.26761,3.64953 1.44208,5.04464 1.73255,2.05904 1.80733,3.05701 0.32943,4.39471 -0.78727,0.71247 -1.67355,0.91412 -3.02854,0.6889 -10.47437,-1.74093 -10.38803,-1.74007 -13.16419,-0.14189 -3.10605,1.78844 -4.32197,1.96021 -3.53436,0.49904 z m 37.36962,-38.90269 c -2.83039,-1.96437 -11.91466,-10.33156 -11.91466,-10.97417 0,-0.31657 -0.77877,-1.72886 -1.73056,-3.1392 -0.95179,-1.4103 -1.7306,-2.88868 -1.7306,-3.2852 0,-0.39665 -0.24604,-0.9676 -0.5471,-1.26903 -0.3008,-0.30164 -0.98091,-2.10547 -1.51112,-4.009129 -1.92291,-6.904454 -1.52569,-35.495547 0.59704,-42.975763 0.84404,-2.974319 0.96391,-2.999214 6.65286,-1.384284 4.5844,1.301386 11.91015,1.298233 15.50346,-0.0166 3.12846,-1.135964 4.91702,-1.163763 5.80811,-0.09003 0.37757,0.45461 1.1229,0.827484 1.65696,0.828563 0.53406,0.0083 2.5005,0.393328 4.36989,0.871132 3.03888,0.776948 4.09228,0.774127 9.9479,-0.02074 3.60198,-0.492242 6.97826,-0.730396 7.50295,-0.529127 0.83645,0.321136 0.91029,1.126381 0.60078,6.552492 -1.55967,27.342812 -2.2989,32.065661 -6.09523,38.942936 -1.30615,2.36621 -3.69123,5.56863 -5.30018,7.11643 -1.609,1.54797 -3.76725,3.61821 -4.79617,4.60074 -1.02899,0.98242 -3.63161,2.79953 -5.78367,4.03793 -2.15198,1.23841 -4.60161,2.69899 -5.44358,3.2455 -1.79308,1.16418 -4.78143,2.64141 -5.47968,2.70878 -0.26802,0.0207 -1.30665,-0.52133 -2.3074,-1.21592 z m -17.99935,-7.67125 c -3.3325,-2.13181 -3.77247,-3.1811 -2.24699,-5.35892 1.20343,-1.71825 3.13767,-1.7085 3.14696,0.0207 0.0207,0.71379 0.65277,2.42756 1.44213,3.80839 2.38523,4.17248 2.08696,4.36791 -2.3421,1.53466 z m -49.48365,-10.83242 c -2.1163,-2.78123 -3.84782,-5.205964 -3.84782,-5.388476 0,-0.182976 -0.90859,-1.393204 -2.01895,-2.690486 -1.11053,-1.297362 -2.01905,-2.674055 -2.01905,-3.059457 0,-0.594516 7.56722,-4.616176 11.24862,-5.978261 0.63464,-0.234838 4.07369,-1.896326 7.6424,-3.6924 3.56875,-1.796035 6.95776,-3.265454 7.53133,-3.265454 0.5734,0 1.92221,-0.649041 2.99727,-1.442166 1.07514,-0.793214 2.2089,-1.442166 2.51962,-1.442166 0.50146,0 8.5912,-3.756788 11.61332,-5.393125 4.37994,-2.371465 9.86206,-4.845825 10.23111,-4.617754 0.24189,0.1502 0.44075,1.814627 0.44075,3.699492 0,3.09601 -0.11658,3.427105 -1.21031,3.427105 -1.12996,0 -1.18684,0.220308 -0.85629,3.316861 0.66398,6.221443 0.93167,11.761276 0.59469,12.306584 -0.5602,0.906317 -5.31882,-2.938926 -6.03303,-4.875031 -1.49606,-4.055856 -2.34176,-5.599872 -2.88378,-5.264921 -0.82525,0.509957 -0.71808,1.951541 0.62753,8.445155 0.65945,3.182433 1.05444,5.930709 0.87778,6.107382 -0.57158,0.571446 -8.10648,-8.025773 -8.99902,-10.26783 -1.20542,-3.02747 -1.60182,-3.253588 -2.34844,-1.339636 -0.92253,2.365024 -0.25474,8.405948 1.45486,13.171899 0.79069,2.203472 1.34628,4.097628 1.23455,4.209321 -0.1112,0.111614 -1.38342,-0.593766 -2.82624,-1.567549 -2.77675,-1.873946 -5.57912,-5.873493 -7.22903,-10.317069 -2.41304,-6.499137 -4.18597,-0.914573 -3.03656,9.5646 0.40163,3.660532 0.86665,7.011372 1.03361,7.446362 0.16679,0.43507 0.0809,0.79069 -0.19086,0.79039 -0.53701,-5.8e-4 -5.96104,-6.235913 -8.9927,-10.337575 -2.96511,-4.011787 -3.33442,-3.778567 -3.27857,2.069911 0.0249,2.802515 0.23608,6.595274 0.46477,8.428394 0.40537,3.24505 0.23775,4.35492 -0.52094,3.45482 -0.2058,-0.24396 -2.1044,-2.71778 -4.22062,-5.49892 z m 187.20856,-7.493156 c -0.33068,-0.398313 -0.78766,-1.501622 -1.01552,-2.451625 -0.22862,-0.950091 -0.67073,-2.052907 -0.98407,-2.450629 -0.31367,-0.397899 -0.65052,-2.97905 -0.74931,-5.736174 -0.24605,-6.877358 1.33793,-10.00283 7.36561,-14.532416 1.77932,-1.337111 2.35168,-0.09834 0.86072,1.863254 -3.53477,4.650659 -3.93449,7.271727 -2.41706,15.851684 0.754,4.263175 0.75114,4.987888 -0.0207,6.489629 -0.92909,1.796863 -2.04954,2.153563 -3.03493,0.966277 z M 657.03529,85.285136 c -0.46046,-0.731272 -0.42532,-1.495566 0.13277,-2.884371 1.43544,-3.570992 1.78483,-5.934823 1.42184,-9.619914 -0.30661,-3.1134 -0.2058,-3.807743 0.64036,-4.426858 2.29321,-1.676915 3.80649,-4.462248 3.45163,-6.353623 -0.1892,-1.00938 -0.0846,-1.995482 0.23193,-2.19132 1.3147,-0.812625 6.44972,7.512867 6.44972,10.457237 0,0.817025 -1.29326,3.52278 -2.87396,6.012537 -1.5807,2.489786 -3.03759,5.178488 -3.23741,5.974937 -0.41199,1.640736 -3.57086,4.394417 -4.78703,4.172688 -0.44192,-0.08049 -1.08535,-0.59422 -1.42989,-1.141313 z M 831.90897,69.983731 c -3.6899,-8.543404 -3.46793,-12.383003 0.92391,-15.981753 2.14957,-1.761432 2.91274,-2.04506 5.5027,-2.04506 1.65389,0 3.53356,0.282135 4.177,0.626256 1.15327,0.617169 1.15427,0.644013 0.0688,1.874825 -3.89475,4.417481 -8.23729,13.486446 -8.23729,17.202489 0,2.548463 -0.86906,1.95013 -2.43553,-1.676757 z M 635.69439,60.690019 c -1.23309,-1.287114 -1.49705,-1.98556 -1.19915,-3.172769 0.43768,-1.743633 1.19186,-1.899886 3.01299,-0.624264 0.95631,0.669778 1.2821,1.476019 1.2821,3.172729 0,2.758564 -0.88097,2.936233 -3.09594,0.624304 z m 71.20901,-6.142401 c -1.45316,-4.482868 -1.34222,-5.696793 0.38503,-4.213056 0.55713,0.478591 1.49668,1.042653 2.08792,1.253258 0.79624,0.283794 0.97535,0.717866 0.69106,1.674136 -0.21119,0.709942 -0.53448,2.264254 -0.7184,3.454031 -0.18381,1.189823 -0.49474,2.159079 -0.69094,2.15397 -0.19625,-0.01657 -0.98578,-1.950086 -1.75472,-4.322339 z m 7.8157,-5.605182 c -1.2294,-0.616216 -2.7167,-0.994483 -3.3052,-0.840554 -1.33085,0.348104 -3.57187,-3.003694 -3.29794,-4.932707 0.16429,-1.158701 0.55783,-1.326695 3.46282,-1.479048 l 3.27749,-0.172185 2.2755,3.056097 c 2.72106,3.654347 3.65568,5.376156 3.17771,5.854 -0.49271,0.492865 -2.94043,-0.158077 -5.59038,-1.48606 z m 20.99375,0.431665 c -0.97631,-1.176417 -0.19915,-8.602944 1.18617,-11.334254 1.46723,-2.892792 4.12389,-4.29222 9.07444,-4.780064 2.28256,-0.224878 4.15008,-0.2589 4.15008,-0.07593 0,0.182973 -1.13493,1.431958 -2.52191,2.775042 -1.98469,1.921792 -2.60469,2.994733 -2.91105,5.03776 -0.44744,2.983655 -0.76479,3.451376 -4.59905,6.780273 -3.13982,2.726 -3.37158,2.810515 -4.37868,1.59713 z m -7.50597,-29.47629 c -0.0166,-0.341466 0.66085,-1.245043 1.47327,-2.0083 1.79869,-1.689778 4.92429,-1.770186 8.50574,-0.219484 5.76956,2.498924 4.89458,3.278984 -3.40774,3.038215 -4.1804,-0.121567 -6.56875,-0.415899 -6.57127,-0.810929 z m 12.02382,-4.635428 c -1.69754,-1.145757 -3.67049,-2.307528 -4.38433,-2.581573 -2.67281,-1.026181 -0.93092,-3.0962179 3.58228,-4.2572841 5.20521,-1.3390601 6.08,-1.2206471 6.08,0.8232519 0,1.4198412 -1.71518,8.0988362 -2.07971,8.0988362 -0.0615,0 -1.50074,-0.937475 -3.19824,-2.083231 z"
       id="path3663"
       inkscape:connector-curvature="0"
       sodipodi:nodetypes="ccccccsscscsccssccscscccscscccccscccsscccccccsccsccccsccssccccccscssscscccccccsccsccccccccscccsssccccccccccccsccccssccccccssccsccccsccsccssscccccccccsccsccccccccsscssscccccccsssccccscccsccscsscccsscccsscssccccccssssccsccccsccssscsccccssscccccccccccsccscscccccccccccccccccsssccccsccccccssccccsscccccccsscccsccccscscscsccsccccccccscccccssscssccsccccsccccccccsccccssccccccscscccscccccccsccsccccccsccsccccscscccsccccccssccccccccccscccscscsscsscssccccsccssccscccsccccccccscsccccccccsssccccssscssssccsscccccccccccccsccccccsscscccsccccsssssss" />
    <path
       style="fill:#999999"
       d="m 734.76662,-174.44937 c -35.92866,-1.1755 -72.07934,-5.96942 -79.99437,-10.60801 -1.44167,-0.84487 -1.6127,-1.53647 -0.6134,-2.47983 0.89433,-0.84408 1.67874,-1.22591 4.73314,-2.30351 13.23838,-4.67056 43.21404,-8.63368 75.00085,-9.91586 14.34799,-0.57867 37.45218,-0.31698 52.28209,0.59128 26.41742,1.61871 51.68795,5.36412 62.91338,9.32458 3.94486,1.39172 5.38843,2.32434 5.38843,3.48096 0,2.1212 -11.1556,5.11381 -28.10715,7.54013 -26.08134,3.73297 -60.66008,5.38263 -91.60297,4.37026 z m -87.52521,-15.36384 c -0.48062,-0.30122 -1.63439,-1.21931 -2.56394,-2.04033 -2.71819,-2.4008 -5.95275,-4.75591 -9.23239,-6.72202 -3.56137,-2.13513 -5.01602,-3.5546 -5.53224,-5.39843 -0.5083,-1.81533 -0.25061,-3.24659 1.06177,-5.89765 l 1.12091,-2.26413 -0.0207,-3.78641 c -0.0166,-3.08921 -0.16638,-4.37649 -0.81131,-6.99042 -1.18878,-4.81745 -2.6494,-8.89733 -4.70276,-13.1366 -1.68912,-3.48722 -1.98195,-3.91209 -3.39715,-4.92881 -5.74783,-4.12949 -6.97125,-7.39524 -4.5256,-12.08108 l 0.9883,-1.8937 -0.96021,-1.89275 c -1.03469,-2.03934 -2.73028,-6.44407 -3.7748,-9.80566 l -0.64862,-2.08759 0.62538,-0.14979 c 4.74853,-1.14355 15.43932,-2.92092 19.69465,-3.27421 2.42955,-0.20206 2.46067,-0.19542 2.03888,0.37549 -0.23525,0.31948 -1.55456,2.07555 -2.93101,3.9025 -2.67732,3.55361 -7.9454,11.32035 -7.78628,11.47956 0.19666,0.19666 5.11045,-1.54104 6.82882,-2.41524 0.98033,-0.4988 2.78441,-1.70301 4.00904,-2.67621 2.2004,-1.74866 3.92548,-2.91753 4.30865,-2.91973 0.38669,-0.0166 2.225,3.39119 3.23393,5.96993 1.90677,4.87379 4.57398,15.43172 4.57742,18.11976 l 0.008,0.93506 -2.54862,-1.61107 c -1.40168,-0.8861 -3.85923,-2.25014 -5.46118,-3.03132 -3.10294,-1.51295 -8.03128,-3.07336 -8.78882,-2.78259 -0.60223,0.23151 -0.39001,1.26508 0.91649,4.4702 3.7874,9.28991 10.40856,14.52678 20.87761,16.51267 3.48329,0.66078 9.50026,0.8835 12.61075,0.46677 5.87956,-0.78773 10.345,-2.873 14.02333,-6.54867 3.8116,-3.80903 5.52718,-8.09826 4.78172,-11.95533 -1.04439,-5.40374 -5.09078,-7.72007 -12.39391,-7.09485 -3.049,0.26139 -5.29649,1.12593 -7.0703,2.72073 -2.45116,2.20376 -3.57041,5.96404 -3.00013,10.07921 0.16224,1.17061 0.24522,2.17825 0.18422,2.2392 -0.0606,0.061 -0.93888,-0.30952 -1.951,-0.82259 -6.59564,-3.34532 -10.2063,-8.92876 -9.77193,-15.11166 0.47859,-6.815 5.94503,-12.20547 13.75928,-13.56818 4.18344,-0.72945 7.65966,-0.52307 12.77427,0.75849 1.26009,0.31532 2.34594,0.51929 2.41291,0.45228 0.0672,-0.0672 -0.20579,-1.25347 -0.60697,-2.63667 -1.88316,-6.49867 -1.68724,-9.03589 -0.4941,-13.47761 0.8688,-3.13152 2.91797,-5.61484 4.73438,-8.11697 6.13613,4.87616 9.8957,8.17004 11.37259,14.42247 0.70281,3.38213 1.06917,5.78774 1.2484,8.67223 0.0444,0.0453 1.63875,-0.76765 3.54266,-1.80611 1.90404,-1.03838 4.51033,-2.23741 5.79197,-2.66451 2.03702,-0.67891 2.64149,-0.75658 4.80587,-0.61742 6.53095,0.42013 11.79053,3.12762 13.77737,7.09223 2.53839,5.0654 1.46765,10.46629 -2.96162,14.93724 -1.06273,1.0727 -2.54846,2.36889 -3.30168,2.88052 l -1.36947,0.93025 -0.18547,-1.09655 c -0.93294,-5.50693 -2.8098,-7.95259 -6.91004,-9.00383 -1.9676,-0.5046 -5.84082,-0.41722 -7.83832,0.17676 -2.14813,0.63882 -3.80189,2.05095 -4.87591,4.16314 -0.88997,1.75035 -1.00261,2.2319 -1.02183,4.36898 -0.0249,3.02954 0.66481,4.57804 3.16493,7.0829 3.13194,3.13788 8.25978,5.58929 14.04075,6.71235 3.48084,0.67626 10.1761,0.67007 13.35563,-0.0207 11.84106,-2.54141 20.20664,-9.46964 21.85841,-18.10275 0.59219,-3.09543 0.58555,-3.14082 -0.43067,-2.9376 -1.9483,0.38918 -5.63087,2.06291 -9.04897,4.11157 -2.88603,1.72981 -3.88229,2.18394 -4.80587,2.19032 l -1.165,0.0166 0.0792,-11.94201 0.0793,-11.94192 1.02274,0 c 1.46191,0 3.32246,1.05671 6.90105,3.91939 3.8528,3.08198 6.62672,4.63455 6.62672,3.70874 0,-0.68994 -1.76999,-4.53204 -4.66585,-10.12776 -1.78865,-3.4561 -3.36184,-6.6668 -3.49614,-7.13485 l -0.24438,-0.85109 14.81397,0 14.81389,0 -0.24894,0.86752 c -0.13651,0.47722 -1.71418,3.69825 -3.50519,7.15796 -2.90271,5.60755 -4.65211,9.40093 -4.65211,10.08822 0,0.91755 2.79869,-0.63451 6.51486,-3.61294 3.68475,-2.95325 5.5395,-4.01519 7.01299,-4.01519 l 1.02269,0 0.0793,11.94192 0.0792,11.94201 -1.16506,-0.0166 c -0.92353,-0.0166 -1.91984,-0.46051 -4.80586,-2.19032 -3.41802,-2.04866 -7.1007,-3.72189 -9.04893,-4.11157 -1.01622,-0.2033 -1.0229,-0.15849 -0.43066,2.9376 1.65181,8.63311 10.01735,15.56134 21.85841,18.10275 3.17952,0.68239 9.87466,0.68861 13.35566,0.0207 5.78094,-1.12306 10.90869,-3.57447 14.04063,-6.71235 2.43652,-2.441 3.19102,-4.07493 3.17028,-6.86549 -0.0374,-4.86608 -2.32313,-7.87384 -6.7855,-8.92416 -3.45955,-0.81438 -7.62568,-0.29541 -9.94379,1.23869 -1.99954,1.32333 -3.25076,3.79968 -3.92213,7.76268 l -0.18546,1.09655 -1.36951,-0.93026 c -0.75318,-0.51166 -2.23895,-1.80782 -3.30155,-2.88051 -4.42931,-4.471 -5.5001,-9.87184 -2.96171,-14.93719 1.97378,-3.93868 7.28927,-6.67493 13.77741,-7.09219 2.1643,-0.139 2.76886,-0.0614 4.80588,0.61733 1.28155,0.42714 3.88793,1.62612 5.79188,2.66455 1.90395,1.03838 3.49826,1.85109 3.54278,1.80608 0.0448,-0.0453 -0.0331,-0.67178 -0.1726,-1.39259 -0.13941,-0.72089 -9.8e-4,-3.5805 0.50759,-6.255 2.79122,-7.65037 4.79069,-9.82467 12.05171,-14.53133 4.18297,7.3742 4.97005,11.69069 4.47316,18.62958 -0.0581,2.31848 -0.67397,4.61887 -0.60696,4.68588 0.0677,0.0677 1.15276,-0.1365 2.41287,-0.45224 5.11468,-1.28168 8.59096,-1.48801 12.77435,-0.7585 7.81412,1.36272 13.28065,6.7531 13.75932,13.56811 0.43432,6.18289 -3.1763,11.76633 -9.77198,15.11174 -1.01215,0.51328 -1.89013,0.88349 -1.95096,0.82255 -0.0609,-0.061 0.0207,-1.06858 0.18464,-2.23915 0.57028,-4.11527 -0.54896,-7.87554 -3.00009,-10.07926 -1.77387,-1.59485 -4.02133,-2.45972 -7.07033,-2.72064 -7.30318,-0.62531 -11.34948,1.69098 -12.39392,7.09473 -0.74546,3.85706 0.97017,8.14638 4.78176,11.95531 4.98664,4.98321 11.54212,7.13871 20.42994,6.71788 13.97375,-0.66177 22.58263,-6.11294 27.08172,-17.14859 1.30673,-3.20509 1.51876,-4.23912 0.91656,-4.47018 -0.69915,-0.26803 -5.56357,1.22654 -8.49764,2.61129 -1.4417,0.68052 -3.8993,2.04281 -5.46117,3.02743 l -2.83989,1.79005 0,-0.93698 c 0.0166,-2.68986 2.6699,-13.24617 4.57746,-18.12166 1.00893,-2.57875 2.84703,-5.97204 3.23389,-5.96988 0.38296,0.0166 2.10825,1.17098 4.30874,2.91967 2.47713,1.96856 4.78964,3.2292 7.80861,4.25679 3.39644,1.15613 3.3976,1.14696 0.41793,-3.31832 -1.4698,-2.20263 -3.79853,-5.49963 -5.17506,-7.32657 -1.37648,-1.82695 -2.69545,-3.58311 -2.93096,-3.9025 -0.42175,-0.5719 -0.39042,-0.57759 2.03884,-0.37549 4.25541,0.3535 14.94612,2.13074 19.69465,3.27426 l 0.62542,0.15019 -0.64866,2.08762 c -1.04447,3.3616 -2.74011,7.76634 -3.77475,9.80568 l -0.9603,1.89274 0.98839,1.89371 c 2.44561,4.68575 1.22218,7.95158 -4.52561,12.081 -1.41528,1.0168 -1.70807,1.44162 -3.39719,4.92885 -2.05335,4.23931 -3.5139,8.31919 -4.70276,13.13667 -0.64509,2.61385 -0.7945,3.90113 -0.81131,6.9903 l -0.0166,3.78649 1.12091,2.26414 c 1.31242,2.65102 1.57003,4.08223 1.06177,5.89756 -0.51631,1.84392 -1.97087,3.26334 -5.53224,5.39844 -3.33047,1.99667 -6.47988,4.29632 -9.36529,6.83847 -1.01664,0.89575 -2.21231,1.8221 -2.65724,2.05859 -0.9362,0.49789 -1.475,0.38503 -5.01649,-1.04879 -15.8989,-6.4379 -43.51737,-10.69551 -79.36986,-12.23563 -8.45744,-0.36304 -35.81486,-0.36304 -44.27233,0 -36.27872,1.55842 -64.11054,5.90001 -79.99082,12.47839 -2.95893,1.22567 -3.59086,1.31749 -4.62182,0.6714 z m -3.20716,-12.7836 c 0.41818,-1.40183 0.88482,-2.92864 1.03701,-3.39307 0.15227,-0.46445 0.27674,-0.94532 0.27674,-1.06871 0,-0.12282 -1.40897,-1.10718 -3.13103,-2.18609 -1.72214,-1.07892 -3.41748,-2.1475 -3.76753,-2.37458 -0.62414,-0.40495 -0.65326,-0.35847 -1.52673,2.47254 -1.53555,4.97598 -1.7786,4.26981 2.35728,6.84699 1.97573,1.2311 3.68269,2.24127 3.79318,2.24488 0.11077,0.0166 0.5429,-1.14028 0.961,-2.54196 z m 224.63655,0.30537 c 4.1709,-2.5836 3.92375,-1.87382 2.3867,-6.85479 -0.87359,-2.83063 -0.90258,-2.87768 -1.52681,-2.47257 -0.34935,0.22737 -2.04531,1.29566 -3.76749,2.37458 -1.7221,1.07896 -3.13102,2.06269 -3.13102,2.18608 0,0.12322 0.12446,0.60426 0.27673,1.06875 0.15227,0.46445 0.61891,1.99129 1.03701,3.39305 0.4181,1.4017 0.83732,2.54858 0.93138,2.54858 0.0942,0 1.80117,-1.00971 3.79342,-2.24368 z m -202.73466,0.76795 c 2.57879,-0.9771 2.91839,-3.62605 0.6175,-4.81591 -2.097,-1.08443 -5.47719,0.27549 -5.47719,2.2036 0,2.04298 2.63045,3.45689 4.85969,2.61231 z m 179.04578,-0.0959 c 3.04917,-1.27404 2.21613,-4.72604 -1.22019,-5.05618 -3.99146,-0.38337 -5.42748,3.69227 -1.80923,5.13514 1.03245,0.41159 1.90972,0.38877 3.02938,-0.0784 z m -143.83718,-7.16467 c 6.15307,-1.55522 10.32065,-5.06656 10.32065,-8.69564 0,-1.73923 -0.58128,-2.91283 -2.16244,-4.36573 -2.69189,-2.47366 -6.60788,-3.63893 -12.25518,-3.64681 -2.9264,-0.0207 -4.36839,0.139 -6.34827,0.62962 -6.28135,1.55668 -10.6612,5.15414 -10.68435,8.7758 -0.0207,3.61053 4.41039,6.89154 10.63515,7.87068 2.52717,0.39747 7.805,0.1116 10.49444,-0.56792 z m 118.23451,0.1394 c 2.36413,-0.61584 5.04536,-1.89702 6.32898,-3.02406 1.27799,-1.12207 2.26567,-3.05556 2.25691,-4.41827 -0.0207,-3.6217 -4.40303,-7.21915 -10.68443,-8.77575 -1.97984,-0.49071 -3.42187,-0.63377 -6.34819,-0.62966 -4.03942,0.0166 -6.50245,0.45764 -9.37239,1.72019 -1.81187,0.79703 -4.10812,2.83441 -4.65135,4.127 -0.89474,2.12908 -0.19542,4.86147 1.71455,6.70228 2.2942,2.21056 6.79404,4.14704 10.99851,4.73313 2.53423,0.35351 7.59838,0.12779 9.75741,-0.43486 z m -90.72117,-1.22052 c 1.04407,-0.71953 1.42855,-1.29624 1.43901,-2.1585 0.0207,-1.81893 -2.39665,-3.20732 -4.55099,-2.61239 -2.05303,0.5668 -2.98242,2.23463 -2.13153,3.82466 0.73177,1.36736 3.823,1.92524 5.24351,0.94623 z m 54.75571,0.0564 c 2.36673,-1.22388 1.79072,-4.06253 -0.97959,-4.8274 -2.15443,-0.59489 -4.57319,0.79359 -4.55104,2.6124 0.0249,2.12256 3.22878,3.40536 5.53063,2.215 z m -25.82465,-6.42076 c 2.33691,-2.88312 3.3523,-4.35072 3.1741,-4.58747 -0.14397,-0.19127 -1.73583,-2.15102 -3.53713,-4.35449 l -3.27509,-4.00652 -3.47573,4.2504 c -1.9115,2.33765 -3.47556,4.32168 -3.47556,4.40872 0,0.25683 6.75272,8.52868 6.96212,8.52868 0.10498,0 1.73741,-1.90777 3.62729,-4.23932 z m -94.27428,3.63734 c 2.57859,-0.97698 2.91822,-3.62601 0.61734,-4.81587 -2.11385,-1.09311 -5.47706,0.27549 -5.47706,2.22915 0,1.98519 2.68082,3.41225 4.85972,2.58672 z m 183.93977,0.0166 c 3.38346,-0.93967 2.72917,-4.81338 -0.87149,-5.15929 -3.99142,-0.38337 -5.42744,3.69224 -1.80928,5.13506 0.9542,0.38046 1.3842,0.3842 2.68077,0.0207 z m -120.63762,-8.58369 c 1.01568,-0.52514 1.45046,-1.25309 1.45046,-2.42772 0,-1.0629 -1.30667,-2.26604 -2.75654,-2.53805 -1.96557,-0.36885 -4.23381,1.04485 -4.23381,2.6387 0,0.78604 1.01515,2.1399 1.86056,2.48158 0.98269,0.39665 2.75695,0.32321 3.67933,-0.15518 z m 59.46129,-0.68492 c 0.97324,-1.08937 1.04543,-2.01133 0.23815,-3.03817 -1.18106,-1.50138 -3.76661,-1.71742 -5.37865,-0.44939 -1.00937,0.794 -1.30781,1.63643 -0.94664,2.67223 0.45714,1.31139 1.81326,1.99436 3.68451,1.85557 1.32844,-0.0983 1.70858,-0.26305 2.40296,-1.04024 z m -160.4864,-22.65744 c 1.36737,-1.23736 0.0374,-6.01278 -2.00103,-7.17708 -3.20127,-1.82985 -3.52631,4.23799 -0.36927,6.89437 1.05352,0.88644 1.62759,0.95498 2.37034,0.28255 z m 259.16687,-0.28254 c 2.32388,-1.95553 3.01175,-6.11618 1.17381,-7.09988 -1.58298,-0.84715 -4.07693,2.42283 -4.07693,5.34542 0,2.44631 1.21107,3.1782 2.90312,1.75446 z M 755.71689,-256.9712 c 1.41217,-0.73032 1.61082,-2.27711 0.43429,-3.38242 -1.63506,-1.53597 -5.0737,-0.5373 -5.0737,1.47358 0,1.92702 2.56415,2.98198 4.63941,1.90884 z m -111.39358,-18.16706 c -0.80387,-0.58692 -1.78691,-1.30387 -2.18442,-1.5931 l -0.72289,-0.52576 0.87383,-0.73924 c 3.04996,-2.58042 11.3092,-7.52233 19.36911,-11.58996 19.00259,-9.58983 41.17044,-17.04495 60.58324,-20.37426 4.45855,-0.76467 10.75181,-1.63364 11.83093,-1.63364 1.09825,0 5.54834,8.56183 8.17502,15.72838 1.08882,2.97063 3.00402,9.39209 3.00402,10.07186 0,0.33193 -0.62447,0.41366 -3.16066,0.41366 l -3.16069,0 -0.52502,-1.96606 c -1.57784,-5.9096 -4.68546,-13.46889 -7.1087,-17.29174 l -0.85254,-1.34499 -3.59145,0.54373 c -16.77664,2.53972 -36.92713,8.69966 -54.12108,16.54433 -8.78089,4.00631 -18.80252,9.53498 -23.89306,13.18132 -1.29981,0.93105 -2.51866,1.68152 -2.70861,1.66783 -0.19002,-0.0207 -1.00311,-0.50518 -1.80703,-1.09236 z m 214.81367,-0.5424 c -9.35823,-6.88134 -28.49425,-16.00175 -45.43743,-21.65569 -11.8484,-3.95386 -25.32019,-7.25562 -33.7868,-8.28073 -0.88101,-0.10704 -1.80156,-0.24977 -2.04548,-0.3174 -0.31201,-0.0863 -0.94581,0.7796 -2.13588,2.91869 -2.14804,3.86071 -4.17983,8.86017 -5.60079,13.78151 l -1.11273,3.85367 -3.14492,0 c -2.64995,0 -3.14489,-0.0714 -3.14489,-0.45261 0,-0.69564 1.29574,-5.13988 2.60194,-8.92483 1.54925,-4.48856 3.32566,-8.45404 5.85325,-13.06536 1.77704,-3.2421 2.16684,-3.77098 2.77911,-3.77098 1.13975,0 8.93964,1.12737 13.37766,1.93375 14.9323,2.7128 30.65835,7.53443 46.45681,14.24401 6.81371,2.8937 18.15053,8.59423 23.42384,11.77812 4.25367,2.56825 8.96274,5.82405 9.09323,6.28691 0.0929,0.32985 -4.13356,3.3413 -4.6365,3.3038 -0.19542,-0.0166 -1.33899,-0.74953 -2.54042,-1.63302 z m -222.96379,-4.32566 c -1.17662,-0.60297 -1.6019,-1.2255 -1.6019,-2.34545 0,-1.81969 2.62411,-3.16613 4.78234,-2.45374 1.17684,0.38793 2.20804,1.53623 2.20804,2.45789 0,2.07219 -3.19986,3.46257 -5.38848,2.3413 z m 232.13859,0.12862 c -1.93199,-1.1248 -2.38781,-2.46494 -1.30615,-3.84001 1.23347,-1.5681 3.85362,-1.71721 5.521,-0.31409 1.88885,1.58933 0.57999,4.1548 -2.23518,4.3811 -0.76843,0.0614 -1.65923,-0.0419 -1.97967,-0.22696 z m -115.95909,-5.03187 c -2.96358,-1.33947 -2.11621,-4.73799 1.25977,-5.05257 3.31114,-0.30869 5.14937,3.05929 2.58656,4.73844 -1.01017,0.66182 -2.76053,0.80484 -3.84633,0.31409 z m -105.72808,-1.90175 c -1.48277,-0.67339 -2.1531,-1.59054 -2.14103,-2.9298 0.0166,-1.21571 0.37549,-1.75745 1.74352,-2.59141 1.24405,-0.75844 3.41599,-0.82117 4.8513,-0.14024 2.89392,1.37318 2.43827,4.92915 -0.75417,5.88562 -1.52784,0.45764 -2.30093,0.41117 -3.69962,-0.22446 z m 210.89943,0.24769 c -1.06842,-0.31117 -2.35897,-1.60447 -2.59638,-2.60281 -0.24645,-1.03556 0.66406,-2.61452 1.8747,-3.25202 1.22932,-0.64737 3.50378,-0.69782 4.65344,-0.10372 1.86967,0.9669 2.59427,3.03153 1.57464,4.48714 -0.98067,1.40018 -3.46661,2.06431 -5.5064,1.47113 z m -104.69899,-6.09306 c -4.22293,-0.78018 -5.03647,-5.27255 -1.24723,-6.88719 1.34706,-0.57402 3.82424,-0.50519 5.03821,0.13982 0.55821,0.29748 1.32051,0.98473 1.69397,1.52916 1.89366,2.76027 -1.46955,5.95989 -5.48495,5.21804 z m -92.18549,-0.57302 c -3.27537,-0.78048 -4.64007,-3.4425 -2.85349,-5.56569 1.00282,-1.19177 2.29968,-1.73035 4.16646,-1.73035 2.69579,0 4.68447,1.52253 4.74429,3.63223 0.0688,2.42482 -3.13198,4.3608 -6.05726,3.66381 z m 184.17764,0.0166 c -2.89187,-0.56099 -4.43793,-3.26645 -3.06451,-5.3625 1.11484,-1.70152 4.46926,-2.47084 6.70318,-1.53752 1.30802,0.54651 2.52564,2.06436 2.52564,3.14817 0,2.48594 -3.06713,4.35263 -6.16431,3.75185 z m -170.97159,-7.30654 c -2.2011,-1.16284 -2.89544,-3.21022 -1.73442,-5.11418 1.6524,-2.70961 7.44354,-2.70961 9.09589,0 1.17804,1.93196 0.37258,4.15534 -1.89428,5.23131 -1.37901,0.65435 -4.11792,0.59568 -5.46719,-0.11658 z m 154.83964,0.17883 c -1.47453,-0.64223 -2.4612,-2.05946 -2.4612,-3.53502 0,-4.07655 7.36885,-5.36387 9.64289,-1.68459 0.73493,1.1892 0.63207,2.98755 -0.22487,3.93531 -1.42175,1.57216 -4.845,2.20414 -6.95678,1.2843 z m -77.31654,-2.67746 c -2.2877,-0.99083 -3.52868,-3.05722 -2.92852,-4.87595 1.14854,-3.48008 6.73791,-4.56729 9.77413,-1.90141 3.29637,2.89419 0.56506,7.26657 -4.51544,7.2287 -0.72089,-0.0166 -1.76948,-0.20829 -2.33017,-0.45134 z m -63.19858,-2.52112 c -1.69585,-0.86648 -2.48184,-1.9805 -2.4813,-3.51651 0.008,-2.30986 1.95059,-3.95616 4.99125,-4.21439 2.73032,-0.23193 5.33218,1.25567 5.92001,3.38487 0.43175,1.56369 -0.55751,3.43429 -2.29238,4.335 -1.75534,0.91133 -4.36657,0.91597 -6.13758,0.0166 z m 125.59937,0.0419 c -2.24956,-1.11348 -3.05451,-2.99507 -2.1531,-5.03287 0.71618,-1.61896 2.88392,-2.79927 5.14149,-2.79927 2.25745,0 4.4252,1.18031 5.14141,2.79927 0.61409,1.38839 0.51091,2.38102 -0.38006,3.65638 -1.33781,1.91499 -5.25588,2.61095 -7.74974,1.37649 z m -109.1489,-4.88504 c -2.56722,-1.17765 -3.7643,-3.43009 -2.90985,-5.47514 0.97673,-2.33774 2.77732,-3.39537 5.82973,-3.42434 3.71812,-0.0374 6.25504,1.91944 6.25504,4.8194 0,2.66206 -2.58808,4.61456 -6.11659,4.61456 -1.21903,0 -2.3081,-0.19044 -3.05833,-0.53448 z m 92.62243,-0.0166 c -4.50988,-2.08791 -4.00549,-7.18791 0.85387,-8.63252 1.81466,-0.53937 2.60414,-0.53635 4.46889,0.0207 2.75096,0.81694 4.44718,3.23707 3.8315,5.46672 -0.32403,1.17356 -1.79151,2.64203 -3.24682,3.24903 -1.4937,0.62303 -4.45341,0.57269 -5.90744,-0.1004 z m -74.06243,-2.49722 c -2.62596,-0.82001 -4.14235,-2.61484 -4.14235,-4.90279 0,-4.40711 6.8001,-6.80147 11.09539,-3.90689 2.92379,1.97038 3.12386,5.58526 0.42304,7.64526 -1.94644,1.48469 -4.87171,1.94648 -7.37608,1.16442 z m 56.37242,-0.0207 c -2.76723,-0.88641 -4.59547,-3.55721 -3.97452,-5.80604 1.07717,-3.90142 7.23168,-5.56497 11.05523,-2.98826 3.37213,2.27247 2.99179,6.5563 -0.74259,8.36401 -1.7309,0.83785 -4.48229,1.02468 -6.33812,0.43029 z m -27.74734,-1.01411 c -4.84802,-0.56576 -9.11277,-2.95001 -11.35641,-6.34893 -0.99079,-1.50104 -1.70376,-4.4728 -1.47246,-6.13772 0.29749,-2.13771 1.73393,-4.77454 3.44446,-6.32022 1.81125,-1.63697 4.94913,-3.19892 7.45145,-3.70941 0.92848,-0.27093 1.7609,-0.34852 1.75422,-0.46166 -0.0207,-0.11369 0.0249,-2.01204 0.0249,-4.08208 l 0,-3.7647 c -3.69189,1.7874 -7.58975,3.35822 -11.41536,4.61708 l -1.11963,0 0.0784,-6.91897 0.0784,-6.91603 0.95224,0.0469 c 4.29999,1.84433 6.90492,2.95379 11.3507,5.04951 0.0331,-1.38081 0.088,-2.12145 0.0374,-3.05515 -0.8866,-1.43822 -1.13223,-1.95897 -3.18621,-4.4564 -2.67148,-3.45809 -3.18061,-4.28209 -3.18061,-5.14762 l 0,-1.03037 9.0293,0 9.02922,0 -0.0166,1.09215 c -0.0166,0.94328 -0.43901,1.65684 -3.20393,5.23172 l -3.20161,4.13954 0,2.34931 0,0.87682 c 3.99354,-1.77591 5.95654,-2.49598 11.16656,-5.09477 l 1.0666,-9.2e-4 0,7.8628 0,5.97183 -0.86488,0 c -4.12547,-1.10742 -7.59381,-2.75707 -11.36828,-4.61671 l 0,4.28861 0,3.72961 1.60672,0.35972 c 3.7343,0.83575 7.98403,3.82085 9.3957,6.59987 4.2304,8.32745 -4.75412,17.17108 -16.09959,15.84708 z m 10.8779,-6.10016 c -3.24463,-3.55764 -14.49151,-3.55017 -17.51142,0 2.71032,3.73468 14.57652,3.96412 17.51142,0 z m -10.98457,-13.84882 c -0.19791,-0.19542 -3.1448,0.80673 -4.46345,1.51838 -1.30101,0.61506 -3.09249,2.23284 -3.25608,2.69148 0.008,0.46116 2.79868,1.84051 5.2526,2.32363 2.91581,0.62746 2.43353,0.8101 2.51975,-3.03888 -0.0481,-1.43238 -0.0427,-2.42226 -0.0532,-3.49461 z m 7.82512,6.54328 c 2.01066,-0.44408 4.66029,-1.47917 4.66029,-1.8206 0,-0.16845 -0.60867,-0.88897 -1.35272,-1.60186 -1.29819,-1.24392 -3.43453,-2.42731 -5.12792,-2.84059 l -0.80097,-0.19543 0,3.38109 c 0,3.83364 -0.12654,3.68447 2.62132,3.07747 z"
       id="path4150"
       inkscape:connector-curvature="0"
       sodipodi:nodetypes="sccssccssscsscccccsscccscccccccccscccccccssscscccccccsccccccssssccccscsscscsccccsssccccccsscsccccsccccccsccccccccccccccscsscccsccssscccccccscsscccccccccscccsssccccccccccscccccccccccsccscccsscccccccscccccccccccsccccccsccccccccscsssccsscccccccscsccccccccccccsccccscssssccccssssssccscssccccscccscsscsscsscccccscscccccccccccccsccccccccccsscccsccsccccssccssccccsccccccscccccccccccscccscccsscccccsccssscsscssccsccccscccccccccsccccsccccccccccccsccccccccccccccccscc" />
  </g>
</svg>
