<?xml version="1.0" encoding="UTF-8" standalone="no"?>
<!-- Created with Inkscape (http://www.inkscape.org/) -->

<svg
   xmlns:dc="http://purl.org/dc/elements/1.1/"
   xmlns:cc="http://creativecommons.org/ns#"
   xmlns:rdf="http://www.w3.org/1999/02/22-rdf-syntax-ns#"
   xmlns:svg="http://www.w3.org/2000/svg"
   xmlns="http://www.w3.org/2000/svg"
   xmlns:sodipodi="http://sodipodi.sourceforge.net/DTD/sodipodi-0.dtd"
   xmlns:inkscape="http://www.inkscape.org/namespaces/inkscape"
   width="210mm"
   height="297mm"
   viewBox="0 0 744.0945 1052.3622"
   id="svg7694"
   version="1.1"
   inkscape:version="0.91 r13725"
   sodipodi:docname="schild-draak-kroon-sb-ridder-laag-2.svg">
  <defs
     id="defs7696">
    <linearGradient
       x1="0"
       y1="0"
       x2="1"
       y2="0"
       gradientUnits="userSpaceOnUse"
       gradientTransform="matrix(-147.52,-207.34875,207.34875,-147.52,361.62143,470.5997)"
       spreadMethod="pad"
       id="linearGradient4380">
      <stop
         style="stop-opacity:1;stop-color:#fef6fb"
         offset="0"
         id="stop4382" />
      <stop
         style="stop-opacity:1;stop-color:#ecca56"
         offset="0.291209"
         id="stop4384" />
      <stop
         style="stop-opacity:1;stop-color:#262525"
         offset="1"
         id="stop4386" />
    </linearGradient>
    <clipPath
       clipPathUnits="userSpaceOnUse"
       id="clipPath6144">
      <path
         d="M 0,330 457,330 457,0 0,0 0,330 Z"
         id="path6146"
         inkscape:connector-curvature="0" />
    </clipPath>
  </defs>
  <sodipodi:namedview
     id="base"
     pagecolor="#ffffff"
     bordercolor="#666666"
     borderopacity="1.0"
     inkscape:pageopacity="0.0"
     inkscape:pageshadow="2"
     inkscape:zoom="0.70710678"
     inkscape:cx="197.08003"
     inkscape:cy="441.67014"
     inkscape:document-units="px"
     inkscape:current-layer="layer1"
     showgrid="false"
     inkscape:window-width="1920"
     inkscape:window-height="1029"
     inkscape:window-x="0"
     inkscape:window-y="0"
     inkscape:window-maximized="1"
     fit-margin-top="0"
     fit-margin-left="0"
     fit-margin-right="0"
     fit-margin-bottom="0"
     units="mm" />
  <metadata
     id="metadata7699">
    <rdf:RDF>
      <cc:Work
         rdf:about="">
        <dc:format>image/svg+xml</dc:format>
        <dc:type
           rdf:resource="http://purl.org/dc/dcmitype/StillImage" />
        <dc:title></dc:title>
      </cc:Work>
    </rdf:RDF>
  </metadata>
  <g
     inkscape:label="Layer 1"
     inkscape:groupmode="layer"
     id="layer1"
     transform="translate(-206.56055,534.99697)">
    <path
       style="fill:#aa8800;fill-opacity:1;fill-rule:evenodd;stroke:none"
       d="m 387.00781,116.03906 c 108.41122,26.46355 209.79358,30.5797 319.32422,31.17188 l 0,235.78711 -319.32422,0 z m -27.79883,0.20703 0,266.75196 -319.519527,0 0,-235.66602 c 26.28416,0.008 52.604522,-0.0827 78.888667,-0.70508 82.93044,-2.043 160.97004,-10.17618 240.63086,-30.38086 z m -319.519527,294.73047 319.519527,0 0,541.63477 C 297.35726,908.71035 224.40968,879.66205 163.47266,834.45117 69.512546,764.72662 39.689453,676.11531 39.689453,561.07812 Z m 347.318357,0 319.32422,0 0,150.10156 c 0,115.03719 -29.82107,203.6485 -123.76562,273.37305 -60.86089,45.16515 -133.75123,74.20079 -195.5586,118.02735 z"
       transform="translate(206.56055,-534.99697)"
       id="path4388"
       inkscape:connector-curvature="0"
       sodipodi:nodetypes="cccccccccccccccscccsccc" />
  </g>
</svg>
